<svg width="56" height="56" viewBox="0 0 56 56" fill="none" xmlns="http://www.w3.org/2000/svg">
<path d="M5.09091 56V45.3091H0V12.7273H5.09091V2.54545C5.09091 1.82424 5.33527 1.21927 5.824 0.730545C6.31103 0.243515 6.91515 0 7.63636 0C8.35758 0 8.96254 0.243515 9.45127 0.730545C9.9383 1.21927 10.1818 1.82424 10.1818 2.54545V12.7273H15.2727V45.3091H10.1818V56H5.09091ZM25.4545 56V45.3091H20.3636V12.7273H25.4545V2.54545C25.4545 1.82424 25.6989 1.21927 26.1876 0.730545C26.6747 0.243515 27.2788 0 28 0C28.7212 0 29.3262 0.243515 29.8149 0.730545C30.3019 1.21927 30.5455 1.82424 30.5455 2.54545V12.7273H35.6364V45.3091H30.5455V56H25.4545ZM45.8182 56V45.3091H40.7273V12.7273H45.8182V2.54545C45.8182 1.82424 46.0625 1.21927 46.5513 0.730545C47.0383 0.243515 47.6424 0 48.3636 0C49.0848 0 49.689 0.243515 50.176 0.730545C50.6647 1.21927 50.9091 1.82424 50.9091 2.54545V12.7273H56V45.3091H50.9091V56H45.8182ZM5.09091 17.8182V28H10.1818V17.8182H5.09091ZM25.4545 17.8182V28H30.5455V17.8182H25.4545ZM45.8182 17.8182V28H50.9091V17.8182H45.8182ZM5.09091 40.7273H10.1818V33.0909H5.09091V40.7273ZM25.4545 40.7273H30.5455V33.0909H25.4545V40.7273ZM45.8182 40.7273H50.9091V33.0909H45.8182V40.7273ZM5.09091 28H10.1818H5.09091ZM25.4545 28H30.5455H25.4545ZM45.8182 28H50.9091H45.8182ZM5.09091 33.0909H10.1818H5.09091ZM25.4545 33.0909H30.5455H25.4545ZM45.8182 33.0909H50.9091H45.8182Z" fill="#456DA8"/>
</svg>
