<svg width="54" height="54" viewBox="0 0 54 54" fill="none" xmlns="http://www.w3.org/2000/svg">
<g clip-path="url(#clip0_259_386)">
<path d="M49.5 0H4.5C3.30653 0 2.16193 0.474106 1.31802 1.31802C0.474106 2.16193 0 3.30653 0 4.5L0 49.5C0 50.6935 0.474106 51.8381 1.31802 52.682C2.16193 53.5259 3.30653 54 4.5 54H49.5C50.6935 54 51.8381 53.5259 52.682 52.682C53.5259 51.8381 54 50.6935 54 49.5V4.5C54 3.30653 53.5259 2.16193 52.682 1.31802C51.8381 0.474106 50.6935 0 49.5 0ZM13.5 36C13.055 36 12.62 35.868 12.25 35.6208C11.88 35.3736 11.5916 35.0222 11.4213 34.611C11.251 34.1999 11.2064 33.7475 11.2932 33.311C11.38 32.8746 11.5943 32.4737 11.909 32.159C12.2237 31.8443 12.6246 31.63 13.061 31.5432C13.4975 31.4564 13.9499 31.501 14.361 31.6713C14.7722 31.8416 15.1236 32.13 15.3708 32.5C15.618 32.87 15.75 33.305 15.75 33.75C15.7494 34.3466 15.5122 34.9185 15.0903 35.3403C14.6685 35.7622 14.0966 35.9994 13.5 36ZM49.5 13.5H44.586C44.0552 11.9988 43.0108 10.7335 41.6374 9.92783C40.264 9.12216 38.65 8.82795 37.0806 9.09721C35.5112 9.36647 34.0876 10.1819 33.0613 11.3993C32.0349 12.6167 31.472 14.1577 31.472 15.75C31.472 17.3423 32.0349 18.8833 33.0613 20.1007C34.0876 21.3181 35.5112 22.1335 37.0806 22.4028C38.65 22.6721 40.264 22.3778 41.6374 21.5722C43.0108 20.7665 44.0552 19.5012 44.586 18H49.5V27H40.5V31.5H49.5V36H45V40.5H49.5V49.5H31.5V46.836C33.0012 46.3052 34.2665 45.2608 35.0722 43.8874C35.8778 42.514 36.1721 40.9 35.9028 39.3306C35.6335 37.7612 34.8181 36.3376 33.6007 35.3113C32.3833 34.2849 30.8423 33.722 29.25 33.722C27.6577 33.722 26.1167 34.2849 24.8993 35.3113C23.6819 36.3376 22.8665 37.7612 22.5972 39.3306C22.3279 40.9 22.6222 42.514 23.4278 43.8874C24.2335 45.2608 25.4988 46.3052 27 46.836V49.5H15.75V40.086C17.2512 39.5552 18.5165 38.5108 19.3222 37.1374C20.1278 35.764 20.4221 34.15 20.1528 32.5806C19.8835 31.0112 19.0681 29.5876 17.8507 28.5613C16.6333 27.5349 15.0923 26.972 13.5 26.972C11.9077 26.972 10.3667 27.5349 9.14927 28.5613C7.93186 29.5876 7.11647 31.0112 6.84721 32.5806C6.57795 34.15 6.87216 35.764 7.67783 37.1374C8.4835 38.5108 9.74877 39.5552 11.25 40.086V49.5H4.5V4.5H13.5V18H18V4.5H22.5V27H27V4.5H49.5V13.5ZM40.5 15.75C40.5 16.195 40.368 16.63 40.1208 17C39.8736 17.37 39.5222 17.6584 39.111 17.8287C38.6999 17.999 38.2475 18.0436 37.811 17.9568C37.3746 17.87 36.9737 17.6557 36.659 17.341C36.3443 17.0263 36.13 16.6254 36.0432 16.189C35.9564 15.7525 36.001 15.3001 36.1713 14.889C36.3416 14.4778 36.63 14.1264 37 13.8792C37.37 13.632 37.805 13.5 38.25 13.5C38.8466 13.5006 39.4185 13.7378 39.8403 14.1597C40.2622 14.5815 40.4994 15.1534 40.5 15.75Z" fill="white"/>
</g>
<defs>
<clipPath id="clip0_259_386">
<rect width="54" height="54" fill="white"/>
</clipPath>
</defs>
</svg>
