<svg width="48" height="48" viewBox="0 0 48 48" fill="none" xmlns="http://www.w3.org/2000/svg">
<path d="M8.072 20.726C8.74431 18.5371 10.006 16.5755 11.719 15.056C10.787 14.311 11.719 9.67999 11.719 9.67999C11.719 9.67999 15.445 11.33 16.111 12.102C16.111 12.102 18.985 8.61499 27.317 8.61499C35.649 8.61499 43.5 15.057 43.5 23.654C43.5 32.251 37.271 34.993 37.271 34.993C36.9465 36.5099 36.4465 37.9838 35.781 39.385H32.48C31.9534 38.5748 31.4823 37.7299 31.07 36.856C31.07 36.856 28.435 37.176 26.545 37.176C25.2132 37.1489 23.8862 37.0063 22.579 36.75C22.4662 37.6862 22.1479 38.586 21.647 39.385H18.054C16.936 38.427 16.377 35.419 16.377 35.419C16.377 35.419 7.327 31.32 5.41 28.87C4.371 26.927 4.504 22.615 4.504 22.615C5.51032 21.6882 6.73903 21.0372 8.071 20.725L8.072 20.726Z" stroke="white" stroke-width="3" stroke-linecap="round" stroke-linejoin="round"/>
<path d="M19.5439 16.7791C21.6765 15.2458 24.268 14.4853 26.8909 14.6231C29.7567 14.5759 32.5598 15.4637 34.8759 17.1521" stroke="white" stroke-width="3" stroke-linecap="round" stroke-linejoin="round"/>
<path d="M11.612 22.0349C12.0262 22.0349 12.362 21.6991 12.362 21.2849C12.362 20.8707 12.0262 20.5349 11.612 20.5349C11.1978 20.5349 10.862 20.8707 10.862 21.2849C10.862 21.6991 11.1978 22.0349 11.612 22.0349Z" fill="white"/>
</svg>
