<svg width="46" height="46" viewBox="0 0 46 46" fill="none" xmlns="http://www.w3.org/2000/svg">
<path fill-rule="evenodd" clip-rule="evenodd" d="M23 8.625C26.1069 8.6262 29.1297 9.63392 31.6158 11.4972C34.1019 13.3606 35.9174 15.9792 36.7903 18.9609C37.6633 21.9425 37.5468 25.1268 36.4582 28.0367C35.3696 30.9466 33.3676 33.4255 30.752 35.1021C28.1363 36.7788 25.0479 37.5628 21.9493 37.337C18.8507 37.1111 15.9086 35.8874 13.5638 33.8491C11.219 31.8109 9.59765 29.0678 8.9426 26.0308C8.28756 22.9938 8.63407 19.8263 9.93025 17.0028C10.0713 16.6595 10.0742 16.2749 9.93817 15.9296C9.80217 15.5842 9.53787 15.3049 9.20059 15.15C8.86331 14.9951 8.47918 14.9767 8.12862 15.0985C7.77805 15.2204 7.48821 15.4732 7.31975 15.8039C5.76441 19.1923 5.34875 22.9935 6.13505 26.638C6.92135 30.2825 8.86727 33.5741 11.6813 36.0199C14.4954 38.4656 18.0261 39.9338 21.7447 40.2045C25.4632 40.4752 29.1693 39.5338 32.3079 37.5214C35.4465 35.509 37.8486 32.5339 39.1544 29.0417C40.4603 25.5494 40.5995 21.7282 39.5513 18.1502C38.5031 14.5722 36.3238 11.4302 33.34 9.19469C30.3562 6.95921 26.7284 5.75063 23 5.75V8.625Z" fill="white"/>
<path d="M23 12.8396V1.53513C23 1.39856 22.961 1.26483 22.8877 1.1496C22.8144 1.03437 22.7098 0.942408 22.5861 0.884488C22.4624 0.826568 22.3248 0.805085 22.1893 0.822555C22.0539 0.840025 21.9262 0.895725 21.8213 0.983131L15.0363 6.63538C14.9554 6.70284 14.8903 6.78724 14.8456 6.88263C14.801 6.97802 14.7778 7.08206 14.7778 7.18738C14.7778 7.29271 14.801 7.39674 14.8456 7.49213C14.8903 7.58752 14.9554 7.67193 15.0363 7.73938L21.8213 13.3916C21.9262 13.479 22.0539 13.5347 22.1893 13.5522C22.3248 13.5697 22.4624 13.5482 22.5861 13.4903C22.7098 13.4324 22.8144 13.3404 22.8877 13.2252C22.961 13.1099 23 12.9762 23 12.8396Z" fill="white"/>
</svg>
