<svg width="46" height="46" viewBox="0 0 46 46" fill="none" xmlns="http://www.w3.org/2000/svg">
<path d="M38.3333 9.58333V7.66667C38.3333 6.6125 37.4708 5.75 36.4167 5.75H32.5833C31.5292 5.75 30.6667 6.6125 30.6667 7.66667V9.58333H28.75V17.25C28.75 18.3042 29.6125 19.1667 30.6667 19.1667H32.5833V32.5833C32.5833 34.6917 30.8583 36.4167 28.75 36.4167C26.6417 36.4167 24.9167 34.6917 24.9167 32.5833V13.4167C24.9167 9.18083 21.4858 5.75 17.25 5.75C13.0142 5.75 9.58333 9.18083 9.58333 13.4167V26.8333H7.66667C6.6125 26.8333 5.75 27.6958 5.75 28.75V36.4167H7.66667V38.3333C7.66667 39.3875 8.52917 40.25 9.58333 40.25H13.4167C14.4708 40.25 15.3333 39.3875 15.3333 38.3333V36.4167H17.25V28.75C17.25 27.6958 16.3875 26.8333 15.3333 26.8333H13.4167V13.4167C13.4167 11.3083 15.1417 9.58333 17.25 9.58333C19.3583 9.58333 21.0833 11.3083 21.0833 13.4167V32.5833C21.0833 36.8192 24.5142 40.25 28.75 40.25C32.9858 40.25 36.4167 36.8192 36.4167 32.5833V19.1667H38.3333C39.3875 19.1667 40.25 18.3042 40.25 17.25V9.58333H38.3333Z" fill="white"/>
</svg>
