<svg width="43" height="20" viewBox="0 0 43 20" fill="none" xmlns="http://www.w3.org/2000/svg">
<path d="M38.3333 5.75H42.1667V13.4167H38.3333V5.75ZM0 5.75H3.83333V13.4167H0V5.75ZM32.5833 3.83333C32.5833 2.81667 32.1795 1.84165 31.4606 1.12276C30.7417 0.403868 29.7667 0 28.75 0H13.4167C12.4 0 11.425 0.403868 10.7061 1.12276C9.9872 1.84165 9.58333 2.81667 9.58333 3.83333C8.56667 3.83333 7.59165 4.2372 6.87276 4.95609C6.15387 5.67498 5.75 6.65 5.75 7.66667V11.5C5.75 12.5167 6.15387 13.4917 6.87276 14.2106C7.59165 14.9295 8.56667 15.3333 9.58333 15.3333C9.58333 16.35 9.9872 17.325 10.7061 18.0439C11.425 18.7628 12.4 19.1667 13.4167 19.1667H15.387L18.4575 13.846C18.7236 13.3851 19.1064 13.0024 19.5673 12.7363C20.0283 12.4702 20.5511 12.3301 21.0833 12.3301C21.6156 12.3301 22.1384 12.4702 22.5993 12.7363C23.0603 13.0024 23.443 13.3851 23.7092 13.846L26.7797 19.1667H28.75C29.7667 19.1667 30.7417 18.7628 31.4606 18.0439C32.1795 17.325 32.5833 16.35 32.5833 15.3333C33.6 15.3333 34.575 14.9295 35.2939 14.2106C36.0128 13.4917 36.4167 12.5167 36.4167 11.5V7.66667C36.4167 6.65 36.0128 5.67498 35.2939 4.95609C34.575 4.2372 33.6 3.83333 32.5833 3.83333ZM30.6667 9.58333H11.5V5.75H30.6667V9.58333Z" fill="white"/>
</svg>
