<svg width="39" height="32" viewBox="0 0 39 32" fill="none" xmlns="http://www.w3.org/2000/svg">
<path d="M3.74721 31.1514C1.8938 31.1522 0.392436 29.6501 0.391687 27.7986L0.381995 3.84796C0.381635 2.95838 0.734675 2.10509 1.36345 1.47581C1.99222 0.846523 2.84523 0.492794 3.73481 0.492434L17.6249 0.486813C17.7916 0.486746 17.9546 0.498179 18.1156 0.521113L18.1279 31.1092C17.9689 31.1323 17.804 31.1457 17.6373 31.1458L3.74721 31.1514ZM21.4706 31.1481C21.3135 31.148 21.1566 31.1372 21.001 31.1157L20.9887 0.523786C21.1442 0.502183 21.3011 0.491233 21.4582 0.491013L35.3502 0.485391C36.2398 0.485031 37.0931 0.83807 37.7224 1.46684C38.3517 2.09562 38.7054 2.94862 38.7057 3.8382L38.7154 27.7869C38.7162 29.6404 37.2141 31.1417 35.3626 31.1425L21.4706 31.1481ZM9.00614 25.407L9.20163 25.3935L9.38945 25.3551C9.65741 25.2819 9.89844 25.1327 10.0834 24.9255C10.2684 24.7183 10.3893 24.4619 10.4316 24.1874L10.4469 23.9727L10.4417 11.1349L12.2901 12.9741L12.4531 13.1121C12.731 13.3164 13.0729 13.4147 13.4169 13.3893C13.7609 13.3638 14.0846 13.2163 14.3294 12.9733C14.5734 12.7305 14.7216 12.4078 14.7469 12.0645C14.7721 11.7212 14.6726 11.3804 14.4667 11.1045L14.3286 10.9436L10.0182 6.65773L9.81115 6.48722L9.66353 6.39912L9.44883 6.30912L9.26481 6.26319L9.08847 6.24027L8.9083 6.24034L8.73006 6.26341L8.61124 6.29029L8.41768 6.35937L8.30079 6.41692L8.1724 6.49747L8.05169 6.59144L7.97889 6.65855L3.67195 10.9479L3.53402 11.1089C3.35307 11.3522 3.25413 11.6467 3.25149 11.9499C3.24886 12.2531 3.34267 12.5492 3.51937 12.7956L3.67277 12.9776L3.83575 13.1156C4.08129 13.2956 4.37732 13.3938 4.68182 13.3961C4.98631 13.3984 5.28379 13.3047 5.532 13.1283L5.71211 12.9749L7.56095 11.1361L7.56422 23.9739L7.57772 24.1675C7.6211 24.4785 7.76512 24.7667 7.98776 24.9881C8.2104 25.2095 8.49941 25.352 8.81063 25.3936L9.00614 25.407Z" fill="white"/>
</svg>
