<svg width="46" height="32" viewBox="0 0 46 32" fill="none" xmlns="http://www.w3.org/2000/svg">
<path d="M23 0C19.2057 0.0118982 15.5408 1.38039 12.6673 3.85825C10.465 5.75575 8.86938 8.22825 8.45825 10.7094C3.63975 11.7731 0 15.9706 0 21.0392C0 26.9272 4.9105 31.625 10.8704 31.625H36.4751C41.6933 31.625 46 27.5138 46 22.3474C46 17.6439 42.4293 13.8115 37.8522 13.1646C37.1536 5.74713 30.7337 0 23 0ZM29.7677 19.7052L24.0177 25.4552C23.8842 25.5891 23.7256 25.6953 23.5509 25.7678C23.3763 25.8403 23.1891 25.8776 23 25.8776C22.8109 25.8776 22.6237 25.8403 22.4491 25.7678C22.2744 25.6953 22.1158 25.5891 21.9823 25.4552L16.2323 19.7052C16.0986 19.5716 15.9926 19.4129 15.9202 19.2383C15.8479 19.0637 15.8107 18.8765 15.8107 18.6875C15.8107 18.4985 15.8479 18.3113 15.9202 18.1367C15.9926 17.9621 16.0986 17.8034 16.2323 17.6698C16.5022 17.3998 16.8683 17.2482 17.25 17.2482C17.439 17.2482 17.6262 17.2854 17.8008 17.3577C17.9754 17.4301 18.1341 17.5361 18.2677 17.6698L21.5625 20.9674V10.0625C21.5625 9.68125 21.714 9.31562 21.9835 9.04603C22.2531 8.77645 22.6188 8.625 23 8.625C23.3812 8.625 23.7469 8.77645 24.0165 9.04603C24.2861 9.31562 24.4375 9.68125 24.4375 10.0625V20.9674L27.7323 17.6698C28.0022 17.3998 28.3683 17.2482 28.75 17.2482C29.1317 17.2482 29.4978 17.3998 29.7677 17.6698C30.0377 17.9397 30.1893 18.3058 30.1893 18.6875C30.1893 19.0692 30.0377 19.4353 29.7677 19.7052Z" fill="white"/>
</svg>
