<svg width="39" height="39" viewBox="0 0 39 39" fill="none" xmlns="http://www.w3.org/2000/svg">
<path d="M27.5233 23C27.6767 21.735 27.7917 20.47 27.7917 19.1667C27.7917 17.8633 27.6767 16.5983 27.5233 15.3333H34.0017C34.3083 16.56 34.5 17.8442 34.5 19.1667C34.5 20.4892 34.3083 21.7733 34.0017 23H27.5233ZM24.1308 33.6567C25.2808 31.5292 26.1625 29.2292 26.7758 26.8333H32.43C30.5731 30.0309 27.6271 32.453 24.1308 33.6567ZM23.6517 23H14.6817C14.49 21.735 14.375 20.47 14.375 19.1667C14.375 17.8633 14.49 16.5792 14.6817 15.3333H23.6517C23.8242 16.5792 23.9583 17.8633 23.9583 19.1667C23.9583 20.47 23.8242 21.735 23.6517 23ZM19.1667 34.4233C17.5758 32.1233 16.2917 29.5742 15.5058 26.8333H22.8275C22.0417 29.5742 20.7575 32.1233 19.1667 34.4233ZM11.5 11.5H5.90333C7.74114 8.29383 10.685 5.86785 14.1833 4.67667C13.0333 6.80417 12.1708 9.10417 11.5 11.5ZM5.90333 26.8333H11.5C12.1708 29.2292 13.0333 31.5292 14.1833 33.6567C10.6924 32.4524 7.75262 30.0298 5.90333 26.8333ZM4.33167 23C4.025 21.7733 3.83333 20.4892 3.83333 19.1667C3.83333 17.8442 4.025 16.56 4.33167 15.3333H10.81C10.6567 16.5983 10.5417 17.8633 10.5417 19.1667C10.5417 20.47 10.6567 21.735 10.81 23H4.33167ZM19.1667 3.89083C20.7575 6.19083 22.0417 8.75917 22.8275 11.5H15.5058C16.2917 8.75917 17.5758 6.19083 19.1667 3.89083ZM32.43 11.5H26.7758C26.176 9.12613 25.2877 6.83463 24.1308 4.67667C27.6575 5.88417 30.59 8.31833 32.43 11.5ZM19.1667 0C8.5675 0 0 8.625 0 19.1667C0 24.25 2.01934 29.1251 5.61379 32.7195C7.39358 34.4993 9.50649 35.9111 11.8319 36.8744C14.1573 37.8376 16.6497 38.3333 19.1667 38.3333C24.25 38.3333 29.1251 36.314 32.7195 32.7195C36.314 29.1251 38.3333 24.25 38.3333 19.1667C38.3333 16.6497 37.8376 14.1573 36.8744 11.8319C35.9111 9.50649 34.4993 7.39358 32.7195 5.61379C30.9398 3.834 28.8268 2.42219 26.5014 1.45898C24.176 0.495761 21.6837 0 19.1667 0Z" fill="white"/>
</svg>
