<svg width="46" height="46" viewBox="0 0 46 46" fill="none" xmlns="http://www.w3.org/2000/svg">
<path d="M25.7102 37.2064C26.0668 36.8513 26.3498 36.4293 26.5429 35.9645C26.736 35.4997 26.8354 35.0014 26.8354 34.4982C26.8354 33.9949 26.736 33.4966 26.5429 33.0318C26.3498 32.567 26.0668 32.145 25.7102 31.7899C25.3552 31.4324 24.9332 31.1487 24.4682 30.9549C24.0032 30.7611 23.5045 30.6612 23.0008 30.6609C22.4971 30.6605 21.9982 30.7597 21.533 30.9528C21.0677 31.1459 20.6452 31.4291 20.2898 31.7861C19.9237 32.1397 19.6317 32.5627 19.4308 33.0304C19.2299 33.498 19.1241 34.001 19.1197 34.51C19.1153 35.019 19.2123 35.5238 19.405 35.9949C19.5977 36.466 19.8824 36.894 20.2423 37.2539C20.6022 37.6138 21.0302 37.8985 21.5013 38.0912C21.9724 38.284 22.4772 38.381 22.9862 38.3765C23.4952 38.3721 23.9982 38.2664 24.4659 38.0655C24.9336 37.8646 25.3565 37.5725 25.7102 37.2064ZM39.2629 22.0705C38.7594 22.0714 38.2607 21.9727 37.7955 21.7799C37.3304 21.5871 36.908 21.3042 36.5527 20.9473C29.0797 13.4742 16.9203 13.4762 9.44532 20.9473C8.72629 21.6664 7.75106 22.0703 6.7342 22.0703C5.71733 22.0703 4.74211 21.6664 4.02307 20.9473C3.30404 20.2283 2.90009 19.2531 2.90009 18.2362C2.90009 17.2193 3.30404 16.2441 4.02307 15.5251C14.4862 5.06391 31.51 5.06391 41.9712 15.5251C42.5076 16.061 42.8731 16.7439 43.0214 17.4875C43.1697 18.2312 43.0941 19.0021 42.8042 19.7027C42.5143 20.4034 42.0231 21.0024 41.3927 21.4238C40.7624 21.8453 40.0212 22.0703 39.2629 22.0705ZM14.8676 30.201C14.1095 30.2008 13.3686 29.9759 12.7383 29.5547C12.1081 29.1335 11.6169 28.5348 11.3268 27.8345C11.0367 27.1341 10.9608 26.3635 11.1087 25.62C11.2565 24.8765 11.6215 24.1936 12.1574 23.6575C18.1336 17.6794 27.8626 17.6794 33.8407 23.6575C34.5597 24.3765 34.9636 25.3517 34.9636 26.3686C34.9636 27.3855 34.5597 28.3607 33.8407 29.0797C33.1216 29.7988 32.1464 30.2027 31.1295 30.2027C30.1127 30.2027 29.1374 29.7988 28.4184 29.0797C26.9794 27.6442 25.0297 26.838 22.9971 26.838C20.9645 26.838 19.0149 27.6442 17.5758 29.0797C17.2206 29.436 16.7985 29.7185 16.3337 29.9109C15.8689 30.1033 15.3706 30.2019 14.8676 30.201Z" fill="white"/>
</svg>
