<svg width="46" height="46" viewBox="0 0 46 46" fill="none" xmlns="http://www.w3.org/2000/svg">
<path d="M38.3333 3.83325H19.1666C18.15 3.83325 17.175 4.23712 16.4561 4.95601C15.7372 5.6749 15.3333 6.64992 15.3333 7.66659V11.4999H30.6666C31.6833 11.4999 32.6583 11.9038 33.3772 12.6227C34.0961 13.3416 34.5 14.3166 34.5 15.3333V30.6666H38.3333C39.35 30.6666 40.325 30.2627 41.0439 29.5438C41.7628 28.8249 42.1666 27.8499 42.1666 26.8333V7.66659C42.1666 6.64992 41.7628 5.6749 41.0439 4.95601C40.325 4.23712 39.35 3.83325 38.3333 3.83325Z" fill="white"/>
<path d="M7.66665 42.1666H26.8333C28.9474 42.1666 30.6666 40.4473 30.6666 38.3333V19.1666C30.6666 17.0525 28.9474 15.3333 26.8333 15.3333H7.66665C5.55256 15.3333 3.83331 17.0525 3.83331 19.1666V38.3333C3.83331 40.4473 5.55256 42.1666 7.66665 42.1666ZM11.5 22.9999H23V26.8333H11.5V22.9999ZM11.5 30.6666H23V34.4999H11.5V30.6666Z" fill="white"/>
</svg>
