<svg width="666" height="1467" viewBox="0 0 666 1467" fill="none" xmlns="http://www.w3.org/2000/svg">
<path d="M492.639 8.48783L465.392 59.6046L459.576 8.66298L458.153 8.67817L464.256 62.1076C464.313 62.4628 464.533 62.6977 464.807 62.7541C465.081 62.8105 465.409 62.6884 465.571 62.3901L494.281 8.4703L492.639 8.48783Z" fill="#C4C4C4" fill-opacity="0.2"/>
<path d="M493.445 8.97925L465.133 62.1525C465.132 62.153 465.132 62.1535 465.132 62.154C465.081 62.2448 464.982 62.279 464.91 62.2643C464.884 62.2589 464.855 62.2446 464.827 62.2125C464.799 62.1809 464.767 62.1251 464.751 62.0356L458.713 9.17222L459.13 9.16776L464.895 59.6638L465.077 61.2562L465.832 59.8381L492.94 8.98464L493.445 8.97925Z" stroke="#DBDBDB" stroke-opacity="0.2"/>
<path d="M458.211 8.53882L464.136 60.2626L389.356 8.91751L386.677 8.94607L464.641 62.5063C464.861 62.6815 465.189 62.678 465.406 62.4981C465.624 62.3183 465.787 62.0206 465.73 61.7253L459.633 8.58282L458.211 8.53882Z" fill="#C4C4C4" fill-opacity="0.2"/>
<path d="M464.925 62.0937L388.265 9.42916L389.202 9.41918L463.852 60.6753L464.758 61.2977L464.633 60.2032L458.774 9.05657L459.186 9.0693L465.234 61.7847L465.236 61.8031L465.239 61.8214C465.25 61.8805 465.216 62.0082 465.089 62.1133C465.075 62.1248 465.052 62.1351 465.022 62.1354C464.991 62.1357 464.968 62.1259 464.954 62.1147L464.94 62.1037L464.925 62.0937Z" stroke="#DBDBDB" stroke-opacity="0.2"/>
<path d="M560.035 8.30544L551.25 119.721L465.942 61.8883L494.316 8.65146L492.675 8.66898L464.409 61.7861C464.192 62.1441 464.304 62.6172 464.634 62.8507L551.535 121.733C551.755 121.849 552.029 121.905 552.247 121.785C552.465 121.664 552.628 121.425 552.626 121.128L561.512 8.28967L560.035 8.30544Z" fill="#C4C4C4" fill-opacity="0.2"/>
<path d="M560.971 8.79547L552.128 121.092L552.126 121.113L552.126 121.134C552.127 121.236 552.073 121.31 552.006 121.347L552.006 121.347C552.006 121.348 552.003 121.349 551.995 121.35C551.986 121.352 551.971 121.353 551.948 121.351C551.905 121.346 551.851 121.33 551.792 121.301L464.924 62.4423C464.923 62.4415 464.922 62.4408 464.921 62.44C464.798 62.3498 464.762 62.166 464.836 62.0436L464.844 62.0317L464.85 62.0193L492.976 9.16579L493.48 9.16041L465.501 61.6549L465.29 62.0516L465.66 62.3027L550.968 120.135L551.681 120.618L551.749 119.757L560.497 8.80053L560.971 8.79547Z" stroke="#DBDBDB" stroke-opacity="0.2"/>
<mask id="path-7-inside-1_93_1124" fill="white">
<path d="M465.096 61.4604C465.205 61.4593 465.37 61.5167 465.48 61.5748L552.38 120.457C552.6 120.573 552.711 120.809 552.712 121.105C552.714 121.342 552.606 121.64 552.388 121.761L405.227 235.838C404.955 236.019 404.626 236.022 404.352 235.848C404.077 235.613 404.02 235.258 404.128 234.961L464.388 62.0015C464.441 61.7638 464.604 61.5842 464.823 61.5226C464.932 61.4621 465.041 61.461 465.096 61.4604ZM550.743 121.186L465.49 63.4123L406.361 233.099L550.743 121.186Z"/>
</mask>
<path d="M465.096 61.4604C465.205 61.4593 465.37 61.5167 465.48 61.5748L552.38 120.457C552.6 120.573 552.711 120.809 552.712 121.105C552.714 121.342 552.606 121.64 552.388 121.761L405.227 235.838C404.955 236.019 404.626 236.022 404.352 235.848C404.077 235.613 404.02 235.258 404.128 234.961L464.388 62.0015C464.441 61.7638 464.604 61.5842 464.823 61.5226C464.932 61.4621 465.041 61.461 465.096 61.4604ZM550.743 121.186L465.49 63.4123L406.361 233.099L550.743 121.186Z" fill="#C4C4C4" fill-opacity="0.2"/>
<path d="M465.48 61.5748L466.043 60.746L465.999 60.7157L465.951 60.6904L465.48 61.5748ZM552.38 120.457L551.817 121.286L551.861 121.316L551.909 121.341L552.38 120.457ZM552.388 121.761L551.907 120.886L551.839 120.924L551.778 120.971L552.388 121.761ZM405.227 235.838L405.777 236.671L405.808 236.65L405.838 236.627L405.227 235.838ZM404.352 235.848L403.701 236.61L403.754 236.655L403.812 236.692L404.352 235.848ZM404.128 234.961L405.068 235.297L405.072 235.286L404.128 234.961ZM464.388 62.0015L465.332 62.3262L465.351 62.272L465.363 62.2159L464.388 62.0015ZM464.823 61.5226L465.089 62.485L465.202 62.4534L465.304 62.3968L464.823 61.5226ZM550.743 121.186L551.353 121.975L552.445 121.128L551.307 120.357L550.743 121.186ZM465.49 63.4123L466.054 62.5835L464.976 61.8531L464.546 63.0874L465.49 63.4123ZM406.361 233.099L405.417 232.775L404.31 235.951L406.971 233.889L406.361 233.099ZM465.101 62.4604C465.071 62.4607 465.047 62.459 465.031 62.4574C465.015 62.4557 465.003 62.4537 464.997 62.4524C464.984 62.45 464.98 62.4484 464.984 62.4498C464.988 62.451 464.994 62.4532 465.001 62.456C465.008 62.4589 465.011 62.4604 465.008 62.4592L465.951 60.6904C465.841 60.6322 465.716 60.5801 465.591 60.541C465.48 60.5062 465.297 60.4582 465.09 60.4604L465.101 62.4604ZM464.916 62.4036L551.817 121.286L552.944 119.628L466.043 60.746L464.916 62.4036ZM551.909 121.341C551.824 121.296 551.764 121.226 551.733 121.165C551.707 121.111 551.712 121.087 551.712 121.116L553.712 121.095C553.709 120.563 553.496 119.914 552.852 119.572L551.909 121.341ZM551.712 121.116C551.712 121.093 551.715 121.083 551.722 121.067C551.728 121.055 551.772 120.961 551.907 120.886L552.869 122.635C553.222 122.439 553.429 122.137 553.543 121.886C553.658 121.632 553.714 121.355 553.712 121.095L551.712 121.116ZM551.778 120.971L404.617 235.049L405.838 236.627L552.998 122.55L551.778 120.971ZM404.678 235.006C404.697 234.993 404.734 234.977 404.785 234.976C404.835 234.976 404.873 234.991 404.892 235.003L403.812 236.692C404.419 237.079 405.174 237.07 405.777 236.671L404.678 235.006ZM405.002 235.085C405.034 235.112 405.061 235.156 405.072 235.203C405.081 235.244 405.076 235.275 405.068 235.297L403.188 234.624C402.958 235.259 403.068 236.071 403.701 236.61L405.002 235.085ZM405.072 235.286L465.332 62.3262L463.443 61.6767L403.184 234.636L405.072 235.286ZM465.363 62.2159C465.343 62.3059 465.257 62.4377 465.089 62.485L464.556 60.5602C463.951 60.7307 463.539 61.2216 463.412 61.787L465.363 62.2159ZM465.304 62.3968C465.174 62.4685 465.058 62.4609 465.101 62.4604L465.09 60.4604C465.024 60.4612 464.689 60.4558 464.341 60.6484L465.304 62.3968ZM551.307 120.357L466.054 62.5835L464.926 64.241L550.179 122.014L551.307 120.357ZM464.546 63.0874L405.417 232.775L407.305 233.424L466.434 63.7371L464.546 63.0874ZM406.971 233.889L551.353 121.975L550.133 120.396L405.751 232.31L406.971 233.889Z" fill="#DBDBDB" fill-opacity="0.2" mask="url(#path-7-inside-1_93_1124)"/>
<path d="M202.963 59.5059L465.214 61.2092C465.433 61.2068 465.652 61.3228 465.818 61.5578C465.928 61.7933 465.984 62.0294 465.876 62.2673L405.651 234.943C405.543 235.181 405.38 235.361 405.161 235.422C404.943 235.484 404.724 235.427 404.504 235.311L202.424 60.9319C202.204 60.6976 202.093 60.4028 202.2 60.0466C202.362 59.6898 202.635 59.5094 202.963 59.5059ZM464.184 62.7588L204.995 61.0229L404.657 233.356L464.184 62.7588Z" fill="#C4C4C4" fill-opacity="0.2"/>
<path d="M465.208 61.7092L465.217 61.7091C465.24 61.7089 465.305 61.7178 465.384 61.8149C465.414 61.885 465.428 61.9363 465.433 61.9743C465.437 62.0123 465.433 62.0368 465.421 62.0624L465.412 62.0832L465.404 62.1047L405.187 234.757C405.117 234.902 405.051 234.934 405.028 234.941C404.989 234.952 404.92 234.955 404.786 234.892L202.774 60.5716C202.671 60.4556 202.639 60.3506 202.671 60.2197C202.758 60.0473 202.86 60.0078 202.962 60.0059C202.964 60.0059 202.965 60.0059 202.966 60.0059L465.208 61.7092ZM464.656 62.9214L464.885 62.2634L464.189 62.2588L205.001 60.5229L203.638 60.5138L204.667 61.4022L404.33 233.735L404.886 234.216L405.129 233.519L464.656 62.9214Z" stroke="#DBDBDB" stroke-opacity="0.2"/>
<path d="M389.344 8.89939L386.665 8.92749L462.501 60.6118L205.584 58.9054L287.459 9.44024L284.507 9.47121L202.524 58.9961C202.251 59.1751 202.09 59.529 202.201 59.88C202.257 60.2317 202.587 60.4631 202.915 60.4596L465.024 62.1116C465.352 62.1081 465.623 61.8705 465.731 61.5759C465.838 61.2225 465.672 60.872 465.453 60.6982L389.344 8.89939Z" fill="#C4C4C4" fill-opacity="0.2"/>
<path d="M462.784 60.1982L388.264 9.41074L389.19 9.40102L465.151 61.0989C465.184 61.1282 465.221 61.1782 465.244 61.2418C465.266 61.303 465.271 61.3634 465.256 61.42C465.204 61.5487 465.099 61.6093 465.023 61.6115C465.023 61.6116 465.022 61.6116 465.021 61.6116L202.92 59.9595L202.912 59.9596C202.864 59.9601 202.809 59.9425 202.764 59.9076C202.722 59.8748 202.701 59.8364 202.694 59.7982L202.689 59.7619L202.677 59.7268C202.642 59.6159 202.689 59.4886 202.791 59.4177C202.793 59.4163 202.795 59.415 202.797 59.4136L284.647 9.96977L285.634 9.95941L205.327 58.4777L203.811 59.3936L205.579 59.4054L462.495 61.1118L464.14 61.1228L462.784 60.1982Z" stroke="#DBDBDB" stroke-opacity="0.2"/>
<path d="M284.543 8.96509L204.866 57.4276L231.827 9.23056L230.132 9.24861L202.251 59.1707C202.088 59.4682 202.145 59.8816 202.365 60.1159C202.586 60.3501 202.969 60.4052 203.241 60.2249L287.496 8.93365L284.543 8.96509Z" fill="#C4C4C4" fill-opacity="0.2"/>
<path d="M230.971 9.7397L204.43 57.1851L203.504 58.8397L205.124 57.8544L284.683 9.46362L285.683 9.45297L202.983 59.7981L202.974 59.8031L202.967 59.8083C202.909 59.8465 202.794 59.8399 202.731 59.7725C202.658 59.6956 202.631 59.518 202.688 59.4103C202.689 59.4097 202.689 59.4092 202.689 59.4086L230.426 9.7455L230.971 9.7397Z" stroke="#DBDBDB" stroke-opacity="0.2"/>
<path d="M230.226 9.08985L202.626 58.2253L43.6057 9.99881L38.4129 10.0536L202.799 59.8713C203.128 59.9855 203.455 59.8055 203.617 59.5096L231.975 9.0714L230.226 9.08985Z" fill="#C4C4C4" fill-opacity="0.2"/>
<path d="M231.117 9.58048L203.181 59.2661L203.181 59.2661L203.179 59.2708C203.144 59.3341 203.097 59.374 203.058 59.3924C203.025 59.4083 202.996 59.4098 202.965 59.3989L202.956 59.3956L202.946 59.3927L41.6757 10.5192L43.5318 10.4996L202.478 58.7039L202.863 58.8207L203.061 58.4686L230.519 9.58678L231.117 9.58048Z" stroke="#DBDBDB" stroke-opacity="0.2"/>
<path d="M203.315 58.6193L43.662 10.0036L38.4664 10.059L201.188 59.6483L-86.0743 223.254L-17.6482 10.3612L-19.1796 10.3775L-88.0355 224.636C-88.1432 224.933 -88.0318 225.287 -87.8121 225.462C-87.592 225.697 -87.2638 225.693 -86.991 225.572L203.433 60.1572C203.706 60.0359 203.868 59.679 203.812 59.3836C203.809 58.9693 203.589 58.7348 203.315 58.6193Z" fill="#C4C4C4" fill-opacity="0.2"/>
<path d="M-18.3356 10.8686L-86.5502 223.103L-86.942 224.322L-85.8285 223.688L201.434 60.0825L202.443 59.5075L201.336 59.17L41.7113 10.5245L43.5878 10.5044L203.139 59.089C203.198 59.1169 203.235 59.1496 203.258 59.1822C203.282 59.215 203.311 59.2743 203.312 59.3889L203.312 59.4347L203.32 59.4797C203.326 59.5095 203.322 59.5642 203.295 59.6219C203.267 59.6799 203.236 59.6986 203.232 59.7005L203.209 59.7107L203.187 59.723L-87.2115 225.123C-87.2768 225.149 -87.3336 225.156 -87.3728 225.153C-87.4084 225.149 -87.4284 225.139 -87.4467 225.119L-87.4712 225.093L-87.4992 225.071C-87.5169 225.057 -87.5478 225.018 -87.5655 224.956C-87.5827 224.896 -87.579 224.841 -87.5655 224.804L-87.5624 224.796L-87.5596 224.787L-18.8146 10.8737L-18.3356 10.8686Z" stroke="#DBDBDB" stroke-opacity="0.2"/>
<path d="M650.214 184.397C650.488 184.394 650.762 184.568 650.873 184.922C650.985 185.275 650.878 185.69 650.551 185.871L447.875 316.783C447.711 316.903 447.493 316.905 447.328 316.848C447.164 316.79 446.999 316.674 446.889 316.498L404.385 236.019C404.274 235.784 404.273 235.548 404.381 235.31C404.489 235.072 404.652 234.893 404.925 234.89L650.16 184.457C650.105 184.398 650.159 184.398 650.214 184.397ZM447.755 315.011L646.345 186.744L406.081 236.179L447.755 315.011Z" fill="#C4C4C4" fill-opacity="0.2"/>
<path d="M650.295 185.442L650.31 185.434C650.346 185.414 650.379 185.378 650.4 185.313C650.421 185.245 650.423 185.158 650.396 185.074C650.373 184.999 650.34 184.958 650.314 184.935L650.258 184.946L405.024 235.38L404.976 235.39L404.928 235.39C404.921 235.39 404.917 235.391 404.915 235.391L650.295 185.442ZM650.295 185.442L650.281 185.452L447.605 316.363L447.592 316.371L447.582 316.379C447.582 316.379 447.582 316.379 447.581 316.38C447.579 316.38 447.573 316.383 447.561 316.384C447.539 316.386 447.514 316.382 447.495 316.376C447.43 316.353 447.365 316.308 447.321 316.243L404.833 235.796L650.295 185.442ZM447.313 315.246L447.567 315.726L448.025 315.43L646.615 187.163L646.247 186.254L405.982 235.689L405.326 235.824L405.639 236.414L447.313 315.246Z" stroke="#DBDBDB" stroke-opacity="0.2"/>
<path d="M405.119 234.533L405.173 234.533C405.392 234.53 405.612 234.706 405.723 234.941L448.243 315.572C448.354 315.808 448.355 316.045 448.247 316.283C448.139 316.521 447.976 316.7 447.757 316.703L322.265 345.05C321.992 345.112 321.663 344.997 321.498 344.703C321.332 344.408 321.385 344.053 321.547 343.814L404.464 234.777C404.737 234.656 404.9 234.536 405.119 234.533ZM446.546 315.413L405.021 236.666L324.059 343.076L446.546 315.413Z" fill="#C4C4C4" fill-opacity="0.2"/>
<path d="M405.27 235.156L405.275 235.166L405.28 235.176L447.794 315.795C447.839 315.895 447.838 315.977 447.792 316.078C447.775 316.117 447.757 316.147 447.742 316.171C447.732 316.185 447.723 316.196 447.717 316.203L447.701 316.203L447.649 316.215L322.158 344.562L322.157 344.562C322.085 344.579 321.984 344.546 321.934 344.456L321.498 344.703L321.934 344.456C321.877 344.355 321.887 344.208 321.954 344.103L404.786 235.178C404.816 235.163 404.845 235.149 404.871 235.136C404.932 235.105 404.974 235.085 405.013 235.067C405.085 235.035 405.109 235.033 405.122 235.033L405.163 235.033C405.168 235.035 405.175 235.039 405.185 235.046C405.214 235.069 405.247 235.107 405.27 235.156ZM446.654 315.9L447.294 315.756L446.989 315.178L405.464 236.432L405.099 235.74L404.624 236.365L323.662 342.775L322.832 343.866L324.167 343.564L446.654 315.9Z" stroke="#DBDBDB" stroke-opacity="0.2"/>
<path d="M53.7959 785.314C53.8508 785.313 53.9057 785.312 53.9606 785.312C54.3456 785.426 54.5675 785.84 54.4601 786.256L15.8091 951.668C15.7017 952.085 15.3187 952.327 14.9337 952.212C14.5488 952.097 14.3269 951.684 14.4343 951.267L53.0853 785.855C53.1934 785.557 53.4665 785.317 53.7959 785.314Z" fill="#C4C4C4" fill-opacity="0.2"/>
<path d="M53.9759 786.134L53.9758 786.134L53.9732 786.145L15.325 951.546C15.3246 951.547 15.3242 951.549 15.3239 951.55C15.3001 951.638 15.2531 951.69 15.2123 951.716C15.1732 951.74 15.1295 951.748 15.0787 951.733C14.972 951.701 14.8722 951.569 14.9184 951.39L14.9186 951.39L14.9212 951.379L53.564 786.002C53.6196 785.873 53.7255 785.814 53.7987 785.814L53.7991 785.814L53.7994 785.814L53.7997 785.814L53.8 785.814L53.8003 785.814L53.8007 785.814L53.801 785.814L53.8013 785.814L53.8016 785.814L53.802 785.813L53.8023 785.813L53.8026 785.813L53.8029 785.813L53.8032 785.813L53.8036 785.813L53.8039 785.813L53.8042 785.813L53.8045 785.813L53.8048 785.813L53.8052 785.813L53.8055 785.813L53.8058 785.813L53.8061 785.813L53.8065 785.813L53.8068 785.813L53.8071 785.813L53.8074 785.813L53.8077 785.813L53.8081 785.813L53.8084 785.813L53.8087 785.813L53.809 785.813L53.8093 785.813L53.8097 785.813L53.81 785.813L53.8103 785.813L53.8106 785.813L53.811 785.813L53.8113 785.813L53.8116 785.813L53.8119 785.813L53.8122 785.813L53.8126 785.813L53.8129 785.813L53.8132 785.813L53.8135 785.813L53.8139 785.813L53.8142 785.813L53.8145 785.813L53.8148 785.813L53.8151 785.813L53.8155 785.813L53.8158 785.813L53.8161 785.813L53.8164 785.813L53.8167 785.813L53.8171 785.813L53.8174 785.813L53.8177 785.813L53.818 785.813L53.8184 785.813L53.8187 785.813L53.819 785.813L53.8193 785.813L53.8196 785.813L53.82 785.813L53.8203 785.813L53.8206 785.813L53.8209 785.813L53.8213 785.813L53.8216 785.813L53.8219 785.813L53.8222 785.813L53.8225 785.813L53.8229 785.813L53.8232 785.813L53.8235 785.813L53.8238 785.813L53.8241 785.813L53.8245 785.813L53.8248 785.813L53.8251 785.813L53.8254 785.813L53.8258 785.813L53.8261 785.813L53.8264 785.813L53.8267 785.813L53.827 785.813L53.8274 785.813L53.8277 785.813L53.828 785.813L53.8283 785.813L53.8286 785.813L53.829 785.813L53.8293 785.813L53.8296 785.813L53.8299 785.813L53.8303 785.813L53.8306 785.813L53.8309 785.813L53.8312 785.813L53.8315 785.813L53.8319 785.813L53.8322 785.813L53.8325 785.813L53.8328 785.813L53.8332 785.813L53.8335 785.813L53.8338 785.813L53.8341 785.813L53.8344 785.813L53.8348 785.813L53.8351 785.813L53.8354 785.813L53.8357 785.813L53.836 785.813L53.8364 785.813L53.8367 785.813L53.837 785.813L53.8373 785.813L53.8377 785.813L53.838 785.813L53.8383 785.813L53.8386 785.813L53.8389 785.813L53.8393 785.813L53.8396 785.813L53.8399 785.813L53.8402 785.813L53.8406 785.813L53.8409 785.813L53.8412 785.813L53.8415 785.813L53.8418 785.813L53.8422 785.813L53.8425 785.813L53.8428 785.813L53.8431 785.813L53.8434 785.813L53.8438 785.813L53.8441 785.813L53.8444 785.813L53.8447 785.813L53.8451 785.813L53.8454 785.813L53.8457 785.813L53.846 785.813L53.8463 785.813L53.8467 785.813L53.847 785.813L53.8473 785.813L53.8476 785.813L53.8479 785.813L53.8483 785.813L53.8486 785.813L53.8489 785.813L53.8492 785.813L53.8496 785.813L53.8499 785.813L53.8502 785.813L53.8505 785.813L53.8508 785.813L53.8512 785.813L53.8515 785.813L53.8518 785.813L53.8521 785.813L53.8525 785.813L53.8528 785.813L53.8531 785.813L53.8534 785.813L53.8537 785.813L53.8541 785.813L53.8544 785.813L53.8547 785.813L53.855 785.813L53.8553 785.813L53.8557 785.813L53.856 785.813L53.8563 785.813L53.8566 785.813L53.857 785.813L53.8573 785.813L53.8576 785.813L53.8579 785.813L53.8582 785.813L53.8586 785.813L53.8589 785.813L53.8592 785.813L53.8595 785.813L53.8598 785.813L53.8602 785.813L53.8605 785.813L53.8608 785.813L53.8611 785.813L53.8615 785.813L53.8618 785.813L53.8621 785.813L53.8624 785.813L53.8627 785.813L53.8631 785.813L53.8634 785.813L53.8637 785.813L53.864 785.813L53.8643 785.813C53.9498 785.865 54.015 785.982 53.9759 786.134Z" stroke="#DBDBDB" stroke-opacity="0.2"/>
<path d="M53.8023 785.314C53.9663 785.312 54.1308 785.369 54.2408 785.487C54.4606 785.662 54.572 786.016 54.464 786.254L15.9556 951.225C15.9019 951.404 15.7935 951.582 15.6301 951.703C15.4667 951.823 15.2479 951.825 15.0835 951.768L-151.058 899.476C-151.332 899.36 -151.552 899.126 -151.554 898.83C-151.555 898.533 -151.448 898.236 -151.175 898.056L53.4744 785.376C53.5835 785.316 53.6929 785.315 53.8023 785.314ZM14.7456 950.054L52.7207 787.516L-148.929 898.565L14.7456 950.054Z" fill="#C4C4C4" fill-opacity="0.2"/>
<path d="M53.8759 785.83L53.8999 785.856L53.9279 785.878C53.9474 785.894 53.979 785.935 53.9962 785.992C54.0039 786.018 54.0059 786.039 54.0057 786.052C54.0057 786.054 54.0055 786.056 54.0054 786.057L53.9884 786.095L53.9771 786.143L15.473 951.096C15.4436 951.185 15.3923 951.258 15.3364 951.299C15.3345 951.3 15.3283 951.303 15.3158 951.304C15.294 951.306 15.2691 951.302 15.2505 951.296L15.2432 951.293L15.2357 951.291L-150.879 899.007C-150.943 898.977 -150.991 898.939 -151.019 898.904C-151.048 898.868 -151.053 898.843 -151.054 898.824C-151.055 898.654 -150.998 898.544 -150.913 898.481L53.7074 785.818C53.7076 785.818 53.7079 785.818 53.7081 785.818C53.7138 785.817 53.7235 785.816 53.74 785.815C53.7574 785.814 53.7763 785.814 53.8051 785.814C53.8281 785.814 53.8477 785.818 53.8613 785.823C53.8708 785.826 53.875 785.83 53.8759 785.83ZM14.5934 950.531L15.1091 950.693L15.2325 950.165L53.2076 787.628L53.4621 786.538L52.4812 787.079L-149.169 898.127L-150.194 898.692L-149.082 899.042L14.5934 950.531Z" stroke="#DBDBDB" stroke-opacity="0.2"/>
<path d="M-6.03958 576.28C-5.71138 576.277 -5.43654 576.511 -5.38017 576.806L54.271 785.194C54.3821 785.489 54.2747 785.846 54.0022 786.026C53.7297 786.207 53.4015 786.21 53.1817 786.035L-188.545 602.452C-188.765 602.277 -188.876 601.923 -188.823 601.626C-188.77 601.329 -188.498 601.09 -188.225 601.027L-6.09459 576.221C-6.09425 576.281 -6.03958 576.28 -6.03958 576.28ZM52.2922 783.498L-6.57756 577.885L-186.248 602.369L52.2922 783.498Z" fill="#C4C4C4" fill-opacity="0.2"/>
<path d="M-6.03777 576.718L-6.03761 576.718L-6.03733 576.78L-6.03677 576.78C-5.99472 576.78 -5.95577 576.794 -5.9246 576.82C-5.89235 576.846 -5.87608 576.877 -5.87132 576.902L-5.8671 576.924L-5.8609 576.946L53.7903 785.334L53.7959 785.354L53.803 785.373C53.8342 785.455 53.7992 785.562 53.7274 785.61C53.5984 785.696 53.5125 785.658 53.4947 785.644L53.4947 785.643L53.4853 785.636L-188.232 602.061C-188.233 602.06 -188.234 602.06 -188.235 602.059C-188.288 602.013 -188.357 601.858 -188.331 601.712C-188.327 601.686 -188.308 601.644 -188.261 601.598C-188.218 601.557 -188.17 601.531 -188.131 601.519L-6.23606 576.745C-6.19643 576.76 -6.16129 576.768 -6.13474 576.772C-6.11326 576.776 -6.09415 576.778 -6.07826 576.779C-6.07022 576.779 -6.06278 576.78 -6.05599 576.78L-6.04622 576.78L-6.04167 576.78L-6.03947 576.78L-6.03839 576.78L-6.03786 576.78C-6.03773 576.78 -6.03759 576.78 -6.03777 576.718ZM-6.0379 576.653L-6.03799 576.653C-6.03827 576.579 -6.03876 576.463 -6.03958 576.28L-6.0379 576.653ZM51.9885 783.896L53.1878 784.807L52.7729 783.358L-6.09684 577.745L-6.21532 577.331L-6.64262 577.39L-186.313 601.873L-187.514 602.037L-186.552 602.767L51.9885 783.896Z" stroke="#DBDBDB" stroke-opacity="0.2"/>
<path d="M-188.09 601.16C-187.926 601.158 -187.816 601.216 -187.652 601.274L54.1758 785.02C54.3957 785.196 54.5065 785.431 54.4534 785.728C54.4551 786.025 54.2922 786.264 54.074 786.385L-150.676 899.194C-150.895 899.315 -151.114 899.317 -151.333 899.201C-151.553 899.085 -151.663 898.849 -151.719 898.612L-188.796 602.057C-188.853 601.761 -188.69 601.463 -188.473 601.282C-188.364 601.163 -188.254 601.161 -188.09 601.16ZM52.373 785.573L-187.146 603.58L-150.414 897.294L52.373 785.573Z" fill="#C4C4C4" fill-opacity="0.2"/>
<path d="M53.9612 785.643L53.9532 785.688L53.9534 785.734C53.954 785.835 53.901 785.91 53.8338 785.947C53.8337 785.947 53.8336 785.947 53.8334 785.948L-150.916 898.756L-150.917 898.757C-150.987 898.796 -151.027 898.796 -151.097 898.759C-151.111 898.752 -151.133 898.735 -151.159 898.692C-151.184 898.651 -151.208 898.593 -151.227 898.519L-188.3 601.992L-188.302 601.976L-188.305 601.961C-188.317 601.9 -188.282 601.772 -188.155 601.667L-188.147 601.661C-188.145 601.661 -188.143 601.661 -188.14 601.66C-188.125 601.66 -188.108 601.66 -188.087 601.66C-188.08 601.66 -188.073 601.66 -188.064 601.661C-188.054 601.663 -188.041 601.666 -188.023 601.672C-188.013 601.675 -188.002 601.678 -187.99 601.683C-187.977 601.687 -187.962 601.693 -187.944 601.7C-187.93 601.705 -187.914 601.711 -187.895 601.718L53.8627 785.411C53.864 785.412 53.8653 785.414 53.8666 785.415C53.9207 785.459 53.944 785.495 53.9544 785.521C53.964 785.544 53.9724 785.58 53.9612 785.643ZM52.6125 786.01L53.2878 785.638L52.6767 785.174L-186.842 603.182L-187.79 602.461L-187.642 603.645L-150.91 897.359L-150.819 898.087L-150.174 897.732L52.6125 786.01Z" stroke="#DBDBDB" stroke-opacity="0.2"/>
<path d="M118.089 428.263C118.308 428.26 118.472 428.318 118.638 428.494C118.913 428.787 118.861 429.262 118.644 429.561L-5.82736 577.401C-5.99017 577.64 -6.26344 577.702 -6.53734 577.646C-6.81125 577.59 -6.97671 577.354 -7.03309 577.059L-14.6367 538.556C-14.6931 538.26 -14.5854 537.963 -14.3675 537.783L117.652 428.386C117.816 428.325 117.925 428.264 118.089 428.263ZM-5.94916 575.21L112.162 434.905L-13.1588 538.659L-5.94916 575.21Z" fill="#C4C4C4" fill-opacity="0.2"/>
<path d="M-6.20916 577.081L-6.22562 577.1L-6.24002 577.121C-6.25465 577.143 -6.26784 577.151 -6.28739 577.157C-6.31332 577.165 -6.36207 577.171 -6.43424 577.156C-6.44822 577.153 -6.45978 577.148 -6.47646 577.128C-6.49733 577.102 -6.5254 577.049 -6.54193 576.963L-6.54257 576.959L-14.1456 538.46C-14.1457 538.46 -14.1457 538.459 -14.1458 538.459C-14.1687 538.337 -14.1215 538.226 -14.0501 538.167L-14.0497 538.167L117.907 428.822C117.923 428.816 117.937 428.81 117.949 428.805C117.985 428.791 118.008 428.782 118.028 428.776C118.061 428.765 118.076 428.763 118.092 428.762C118.156 428.762 118.182 428.77 118.194 428.775C118.204 428.779 118.229 428.791 118.272 428.837C118.303 428.869 118.328 428.924 118.326 429.013C118.323 429.1 118.292 429.19 118.248 429.256L-6.20916 577.081ZM-6.43971 575.309L-6.23868 576.328L-5.56736 575.531L112.544 435.226L111.845 434.52L-13.4765 538.274L-13.7071 538.465L-13.6494 538.758L-6.43971 575.309Z" stroke="#DBDBDB" stroke-opacity="0.2"/>
<path d="M118.044 428.263C118.318 428.26 118.592 428.434 118.703 428.728C118.815 429.082 118.762 429.437 118.49 429.676L-13.493 538.703C-13.7654 538.884 -14.0934 538.887 -14.3678 538.713L-98.4069 471.521C-98.6266 471.346 -98.7379 470.993 -98.6849 470.697C-98.6319 470.401 -98.4145 470.162 -98.0868 470.099L117.88 428.264C117.99 428.263 117.99 428.263 118.044 428.263ZM-13.8847 537.112L115.268 430.361L-96.1662 471.32L-13.8847 537.112Z" fill="#C4C4C4" fill-opacity="0.2"/>
<path d="M-98.0935 471.13L-98.0943 471.13C-98.1475 471.087 -98.2191 470.93 -98.1928 470.783C-98.1755 470.686 -98.1134 470.613 -97.9954 470.591L-97.9941 470.59L117.928 428.764L117.928 428.764L117.929 428.764L117.929 428.764L117.929 428.764L117.93 428.764L117.93 428.764L117.931 428.764L117.931 428.764L117.932 428.764L117.932 428.764L117.933 428.764L117.933 428.764L117.933 428.764L117.934 428.764L117.934 428.764L117.935 428.764L117.935 428.764L117.936 428.764L117.936 428.764L117.936 428.764L117.937 428.764L117.937 428.764L117.938 428.764L117.938 428.764L117.939 428.764L117.939 428.764L117.939 428.764L117.94 428.764L117.94 428.764L117.941 428.764L117.941 428.764L117.941 428.764L117.942 428.764L117.942 428.764L117.943 428.764L117.943 428.764L117.943 428.764L117.944 428.764L117.944 428.764L117.945 428.764L117.945 428.764L117.945 428.764L117.946 428.764L117.946 428.764L117.947 428.764L117.947 428.764L117.947 428.764L117.948 428.764L117.948 428.764L117.948 428.764L117.949 428.764L117.949 428.764L117.95 428.764L117.95 428.764L117.95 428.764L117.951 428.764L117.951 428.764L117.951 428.764L117.952 428.764L117.952 428.764L117.953 428.764L117.953 428.764L117.953 428.764L117.954 428.764L117.954 428.764L117.954 428.764L117.955 428.764L117.955 428.764L117.955 428.764L117.956 428.764L117.956 428.764L117.956 428.764L117.957 428.764L117.957 428.764L117.957 428.764L117.958 428.764L117.958 428.764L117.958 428.764L117.959 428.764L117.959 428.764L117.959 428.764L117.96 428.764L117.96 428.764L117.96 428.764L117.961 428.764L117.961 428.764L117.961 428.764L117.962 428.764L117.962 428.764L117.962 428.764L117.963 428.764L117.963 428.763L117.963 428.763L117.964 428.763L117.964 428.763L117.964 428.763L117.965 428.763L117.965 428.763L117.965 428.763L117.965 428.763L117.966 428.763L117.966 428.763L117.966 428.763L117.967 428.763L117.967 428.763L117.967 428.763L117.968 428.763L117.968 428.763L117.968 428.763L117.969 428.763L117.969 428.763L117.969 428.763L117.969 428.763L117.97 428.763L117.97 428.763L117.97 428.763L117.971 428.763L117.971 428.763L117.971 428.763L117.971 428.763L117.972 428.763L117.972 428.763L117.972 428.763L117.973 428.763L117.973 428.763L117.973 428.763L117.973 428.763L117.974 428.763L117.974 428.763L117.974 428.763L117.975 428.763L117.975 428.763L117.975 428.763L117.975 428.763L117.976 428.763L117.976 428.763L117.976 428.763L117.976 428.763L117.977 428.763L117.977 428.763L117.977 428.763L117.977 428.763L117.978 428.763L117.978 428.763L117.978 428.763L117.979 428.763L117.979 428.763L117.979 428.763L117.979 428.763L117.98 428.763L117.98 428.763L117.98 428.763L117.98 428.763L117.981 428.763L117.981 428.763L117.981 428.763L117.981 428.763L117.982 428.763L117.982 428.763L117.982 428.763L117.982 428.763L117.983 428.763L117.983 428.763L117.983 428.763L117.983 428.763L117.984 428.763L117.984 428.763L117.984 428.763L117.984 428.763L117.985 428.763L117.985 428.763L117.985 428.763L117.985 428.763L117.986 428.763L117.986 428.763L117.986 428.763L117.986 428.763L117.987 428.763L117.987 428.763L117.987 428.763L117.987 428.763L117.987 428.763L117.988 428.763L117.988 428.763L117.988 428.763L117.988 428.763L117.989 428.763L117.989 428.763L117.989 428.763L117.989 428.763L117.99 428.763L117.99 428.763L117.99 428.763L117.99 428.763L117.99 428.763L117.991 428.763L117.991 428.763L117.991 428.763L117.991 428.763L117.992 428.763L117.992 428.763L117.992 428.763L117.992 428.763L117.993 428.763L117.993 428.763L117.993 428.763L117.993 428.763L117.993 428.763L117.994 428.763L117.994 428.763L117.994 428.763L117.994 428.763L117.995 428.763L117.995 428.763L117.995 428.763L117.995 428.763L117.995 428.763L117.996 428.763L117.996 428.763L117.996 428.763L117.996 428.763L117.997 428.763L117.997 428.763L117.997 428.763L117.997 428.763L117.997 428.763L117.998 428.763L117.998 428.763L117.998 428.763L117.998 428.763L117.998 428.763L117.999 428.763L117.999 428.763L117.999 428.763L117.999 428.763L118 428.763L118 428.763L118 428.763L118 428.763L118 428.763L118.001 428.763L118.001 428.763L118.001 428.763L118.001 428.763L118.001 428.763L118.002 428.763L118.002 428.763L118.002 428.763L118.002 428.763L118.003 428.763L118.003 428.763L118.003 428.763L118.003 428.763L118.003 428.763L118.004 428.763L118.004 428.763L118.004 428.763L118.004 428.763L118.004 428.763L118.005 428.763L118.005 428.763L118.005 428.763L118.005 428.763L118.006 428.763L118.006 428.763L118.006 428.763L118.006 428.763L118.006 428.763L118.007 428.763L118.007 428.763L118.007 428.763L118.007 428.763L118.007 428.763L118.008 428.763L118.008 428.763L118.008 428.763L118.008 428.763L118.009 428.763L118.009 428.763L118.009 428.763L118.009 428.763L118.009 428.763L118.01 428.763L118.01 428.763L118.01 428.763L118.01 428.763L118.01 428.763L118.011 428.763L118.011 428.763L118.011 428.763L118.011 428.763L118.012 428.763L118.012 428.763L118.012 428.763L118.012 428.763L118.012 428.763L118.013 428.763L118.013 428.763L118.013 428.763L118.013 428.763L118.014 428.763L118.014 428.763L118.014 428.763L118.014 428.763L118.014 428.763L118.015 428.763L118.015 428.763L118.015 428.763L118.015 428.763L118.016 428.763L118.016 428.763L118.016 428.763L118.016 428.763L118.016 428.763L118.017 428.763L118.017 428.763L118.017 428.763L118.017 428.763L118.018 428.763L118.018 428.763L118.018 428.763L118.018 428.763L118.018 428.763L118.019 428.763L118.019 428.763L118.019 428.763L118.019 428.763L118.02 428.763L118.02 428.763L118.02 428.763L118.02 428.763L118.021 428.763L118.021 428.763L118.021 428.763L118.021 428.763L118.021 428.763L118.022 428.763L118.022 428.763L118.022 428.763L118.022 428.763L118.023 428.763L118.023 428.763L118.023 428.763L118.023 428.763L118.024 428.763L118.024 428.763L118.024 428.763L118.024 428.763L118.025 428.763L118.025 428.763L118.025 428.763L118.025 428.763L118.026 428.763L118.026 428.763L118.026 428.763L118.026 428.763L118.027 428.763L118.027 428.763L118.027 428.763L118.027 428.763L118.028 428.763L118.028 428.763L118.028 428.763L118.028 428.763L118.029 428.763L118.029 428.763L118.029 428.763L118.029 428.763L118.03 428.763L118.03 428.763L118.03 428.763L118.03 428.763L118.031 428.763L118.031 428.763L118.031 428.763L118.031 428.763L118.032 428.763L118.032 428.763L118.032 428.763L118.032 428.763L118.033 428.763L118.033 428.763L118.033 428.763L118.033 428.763L118.034 428.763L118.034 428.763L118.034 428.763L118.035 428.763L118.035 428.763L118.035 428.763L118.035 428.763L118.036 428.763L118.036 428.763L118.036 428.763L118.037 428.763L118.037 428.763L118.037 428.763L118.037 428.763L118.038 428.763L118.038 428.763L118.038 428.763L118.038 428.763L118.039 428.763L118.039 428.763L118.039 428.763L118.04 428.763L118.04 428.763L118.04 428.763L118.041 428.763L118.041 428.763L118.041 428.763L118.041 428.763L118.042 428.763L118.042 428.763L118.042 428.763L118.043 428.763L118.043 428.763L118.043 428.763L118.044 428.763L118.044 428.763L118.044 428.763L118.044 428.763L118.045 428.763L118.045 428.763L118.045 428.763L118.046 428.763L118.046 428.763L118.046 428.763L118.047 428.763L118.047 428.763L118.047 428.763C118.107 428.762 118.191 428.803 118.231 428.896C118.293 429.105 118.243 429.227 118.165 429.298L-13.7854 538.298C-13.8816 538.354 -13.983 538.355 -14.0797 538.301L-98.0935 471.13ZM-14.1981 537.503L-13.8814 537.756L-13.5673 537.497L115.585 430.745L115.175 429.87L-96.2589 470.829L-97.3245 471.036L-96.4796 471.711L-14.1981 537.503Z" stroke="#DBDBDB" stroke-opacity="0.2"/>
<path d="M-87.0629 224.584C-86.8988 224.582 -86.7343 224.64 -86.5692 224.816L118.459 428.005C118.679 428.181 118.736 428.536 118.683 428.773C118.629 429.07 118.412 429.25 118.138 429.313L-97.9859 471.273C-98.2045 471.335 -98.424 471.219 -98.5888 471.102C-98.754 470.926 -98.8648 470.69 -98.8114 470.452L-87.7156 225.302C-87.7173 225.006 -87.5548 224.708 -87.2815 224.645C-87.2272 224.586 -87.1724 224.585 -87.0629 224.584ZM116.435 428.027L-86.3927 227.007L-97.3941 469.489L116.435 428.027Z" fill="#C4C4C4" fill-opacity="0.2"/>
<path d="M-86.9346 225.159L-86.9284 225.165L-86.922 225.172L118.106 428.361L118.125 428.38L118.146 428.397C118.146 428.396 118.171 428.419 118.188 428.489C118.205 428.559 118.203 428.628 118.195 428.666L118.192 428.677L118.19 428.688C118.183 428.731 118.167 428.753 118.151 428.768C118.132 428.786 118.096 428.809 118.036 428.824L-98.0788 470.782L-98.0993 470.786L-98.112 470.79C-98.1167 470.789 -98.1258 470.787 -98.1404 470.782C-98.1711 470.772 -98.2091 470.752 -98.2539 470.723C-98.2833 470.686 -98.303 470.651 -98.314 470.622C-98.3276 470.586 -98.3254 470.567 -98.3236 470.559L-98.3139 470.516L-98.3119 470.472L-87.2161 225.322L-87.2156 225.309L-87.2156 225.297C-87.216 225.236 -87.1985 225.182 -87.178 225.149C-87.1719 225.14 -87.1672 225.134 -87.1642 225.131L-87.0187 225.098L-87.0146 225.093C-87.0006 225.1 -86.9735 225.117 -86.9346 225.159ZM116.528 428.518L117.46 428.337L116.788 427.671L-86.0399 226.651L-86.8409 225.857L-86.8922 226.987L-97.8935 469.469L-97.9222 470.1L-97.3013 469.98L116.528 428.518Z" stroke="#DBDBDB" stroke-opacity="0.2"/>
<path d="M405.162 234.42C405.381 234.418 405.6 234.534 405.766 234.709C405.986 235.002 405.934 235.416 405.716 235.655L322.84 344.378C322.732 344.557 322.514 344.677 322.295 344.68L157.243 347.082C156.915 347.085 156.585 346.853 156.528 346.44C156.472 346.086 156.634 345.73 156.961 345.549L404.944 234.482C404.998 234.422 405.108 234.421 405.162 234.42ZM321.959 343.148L402.827 237.103L160.951 345.448L321.959 343.148Z" fill="#C4C4C4" fill-opacity="0.2"/>
<path d="M157.243 347.082C156.915 347.085 156.585 346.853 156.528 346.44M157.243 347.082L322.295 344.68C322.514 344.677 322.732 344.557 322.84 344.378L156.528 346.44M157.243 347.082L157.238 346.582L157.239 346.582M157.243 347.082L157.24 346.582L322.29 344.18L322.292 344.18C322.348 344.179 322.401 344.141 322.413 344.12L322.427 344.098L322.443 344.077L405.319 235.353L405.333 235.335L405.347 235.319C405.374 235.289 405.401 235.235 405.406 235.167C405.41 235.113 405.399 235.067 405.378 235.03M156.528 346.44C156.472 346.086 156.634 345.73 156.961 345.549M156.528 346.44L156.961 345.549M157.239 346.582L405.766 234.709M157.239 346.582C157.194 346.582 157.145 346.566 157.106 346.533C157.071 346.503 157.035 346.454 157.024 346.369L157.024 346.369L157.022 346.358C156.998 346.211 157.061 346.072 157.186 345.995M157.239 346.582L156.961 345.549M405.378 235.03C405.385 235.037 405.393 235.045 405.401 235.053L405.766 234.709M405.378 235.03C405.374 235.023 405.37 235.017 405.365 235.011L405.766 234.709M405.378 235.03C405.3 234.955 405.226 234.927 405.183 234.921M405.766 234.709C405.6 234.534 405.381 234.418 405.162 234.42L405.162 234.42C405.108 234.421 404.998 234.422 404.944 234.482L156.961 345.549M405.183 234.921L405.242 234.895L405.313 234.817C405.27 234.864 405.226 234.889 405.198 234.902C405.185 234.908 405.174 234.912 405.165 234.915C405.155 234.918 405.148 234.919 405.144 234.92C405.141 234.92 405.139 234.921 405.139 234.921C405.139 234.921 405.146 234.92 405.165 234.92C405.17 234.92 405.176 234.92 405.183 234.921ZM405.183 234.921L405.147 234.938L157.186 345.995M157.186 345.995C157.191 345.992 157.196 345.989 157.201 345.987L156.961 345.549M157.186 345.995L157.163 346.005L156.961 345.549M321.963 343.647L322.207 343.644L322.356 343.449L403.224 237.405L402.624 236.646L160.749 344.992L160.956 345.948L321.963 343.647Z" stroke="#DBDBDB" stroke-opacity="0.2"/>
<path d="M203.026 59.3482C203.19 59.3465 203.355 59.404 203.465 59.5214L405.655 234.178C405.875 234.353 405.931 234.649 405.933 234.886C405.88 235.183 405.716 235.362 405.498 235.483L157.312 346.96C157.094 347.081 156.82 347.025 156.6 346.849C156.38 346.674 156.324 346.378 156.323 346.141L202.318 59.9486C202.371 59.6516 202.534 59.472 202.753 59.3512C202.862 59.35 202.917 59.3494 203.026 59.3482ZM403.797 234.553L203.531 61.5359L157.958 344.997L403.797 234.553Z" fill="#C4C4C4" fill-opacity="0.2"/>
<path d="M203.1 59.865L203.117 59.8835L203.137 59.9005L405.327 234.557L405.334 234.563L405.342 234.569C405.359 234.582 405.382 234.609 405.401 234.669C405.418 234.718 405.428 234.777 405.431 234.842C405.418 234.892 405.399 234.924 405.382 234.947C405.36 234.975 405.327 235.005 405.273 235.037L157.109 346.504L157.09 346.513L157.072 346.523L157.071 346.523C157.071 346.524 157.07 346.524 157.068 346.524C157.065 346.525 157.057 346.525 157.043 346.523C157.014 346.518 156.967 346.501 156.913 346.458C156.897 346.445 156.874 346.417 156.854 346.358C156.837 346.306 156.827 346.242 156.824 346.173L202.81 60.0341C202.811 60.0329 202.811 60.0317 202.811 60.0305C202.825 59.958 202.847 59.9158 202.869 59.8874C202.879 59.8752 202.89 59.8625 202.905 59.8496L202.905 59.8496L202.906 59.8496L202.906 59.8495L202.907 59.8495L202.907 59.8495L202.908 59.8495L202.908 59.8495L202.909 59.8495L202.909 59.8495L202.91 59.8495L202.91 59.8495L202.911 59.8495L202.911 59.8495L202.912 59.8495L202.912 59.8495L202.913 59.8495L202.913 59.8495L202.913 59.8495L202.914 59.8495L202.914 59.8495L202.915 59.8495L202.915 59.8494L202.916 59.8494L202.916 59.8494L202.917 59.8494L202.917 59.8494L202.918 59.8494L202.918 59.8494L202.919 59.8494L202.919 59.8494L202.92 59.8494L202.92 59.8494L202.921 59.8494L202.921 59.8494L202.922 59.8494L202.922 59.8494L202.923 59.8494L202.923 59.8494L202.924 59.8494L202.924 59.8494L202.925 59.8493L202.925 59.8493L202.926 59.8493L202.926 59.8493L202.927 59.8493L202.927 59.8493L202.928 59.8493L202.928 59.8493L202.929 59.8493L202.929 59.8493L202.93 59.8493L202.93 59.8493L202.931 59.8493L202.931 59.8493L202.932 59.8493L202.932 59.8493L202.933 59.8493L202.933 59.8493L202.934 59.8493L202.934 59.8492L202.935 59.8492L202.935 59.8492L202.936 59.8492L202.936 59.8492L202.937 59.8492L202.937 59.8492L202.938 59.8492L202.938 59.8492L202.939 59.8492L202.939 59.8492L202.94 59.8492L202.94 59.8492L202.941 59.8492L202.941 59.8492L202.942 59.8492L202.942 59.8492L202.943 59.8492L202.943 59.8492L202.944 59.8491L202.944 59.8491L202.945 59.8491L202.945 59.8491L202.946 59.8491L202.946 59.8491L202.947 59.8491L202.947 59.8491L202.948 59.8491L202.948 59.8491L202.949 59.8491L202.949 59.8491L202.95 59.8491L202.95 59.8491L202.951 59.8491L202.951 59.8491L202.952 59.8491L202.952 59.8491L202.953 59.849L202.953 59.849L202.954 59.849L202.954 59.849L202.955 59.849L202.956 59.849L202.956 59.849L202.957 59.849L202.957 59.849L202.958 59.849L202.958 59.849L202.959 59.849L202.959 59.849L202.96 59.849L202.96 59.849L202.961 59.849L202.961 59.849L202.962 59.849L202.962 59.8489L202.963 59.8489L202.963 59.8489L202.964 59.8489L202.964 59.8489L202.965 59.8489L202.966 59.8489L202.966 59.8489L202.967 59.8489L202.967 59.8489L202.968 59.8489L202.968 59.8489L202.969 59.8489L202.969 59.8489L202.97 59.8489L202.97 59.8489L202.971 59.8489L202.971 59.8488L202.972 59.8488L202.973 59.8488L202.973 59.8488L202.974 59.8488L202.974 59.8488L202.975 59.8488L202.975 59.8488L202.976 59.8488L202.976 59.8488L202.977 59.8488L202.977 59.8488L202.978 59.8488L202.979 59.8488L202.979 59.8488L202.98 59.8488L202.98 59.8488L202.981 59.8487L202.981 59.8487L202.982 59.8487L202.982 59.8487L202.983 59.8487L202.984 59.8487L202.984 59.8487L202.985 59.8487L202.985 59.8487L202.986 59.8487L202.986 59.8487L202.987 59.8487L202.988 59.8487L202.988 59.8487L202.989 59.8487L202.989 59.8487L202.99 59.8487L202.99 59.8486L202.991 59.8486L202.992 59.8486L202.992 59.8486L202.993 59.8486L202.993 59.8486L202.994 59.8486L202.994 59.8486L202.995 59.8486L202.996 59.8486L202.996 59.8486L202.997 59.8486L202.997 59.8486L202.998 59.8486L202.998 59.8486L202.999 59.8486L203 59.8485L203 59.8485L203.001 59.8485L203.001 59.8485L203.002 59.8485L203.003 59.8485L203.003 59.8485L203.004 59.8485L203.004 59.8485L203.005 59.8485L203.006 59.8485L203.006 59.8485L203.007 59.8485L203.007 59.8485L203.008 59.8485L203.009 59.8485L203.009 59.8484L203.01 59.8484L203.01 59.8484L203.011 59.8484L203.012 59.8484L203.012 59.8484L203.013 59.8484L203.013 59.8484L203.014 59.8484L203.015 59.8484L203.015 59.8484L203.016 59.8484L203.016 59.8484L203.017 59.8484L203.018 59.8484L203.018 59.8483L203.019 59.8483L203.02 59.8483L203.02 59.8483L203.021 59.8483L203.021 59.8483L203.022 59.8483L203.023 59.8483L203.023 59.8483L203.024 59.8483L203.025 59.8483L203.025 59.8483L203.026 59.8483L203.027 59.8483L203.027 59.8483L203.028 59.8482L203.028 59.8482L203.029 59.8482C203.052 59.848 203.072 59.8521 203.085 59.8573C203.096 59.8614 203.1 59.865 203.1 59.865ZM404 235.009L404.718 234.686L404.125 234.174L203.859 61.1568L203.18 60.5705L203.037 61.459L157.464 344.92L157.318 345.832L158.161 345.453L404 235.009Z" stroke="#DBDBDB" stroke-opacity="0.2"/>
<path d="M322.426 343.569C322.754 343.566 323.083 343.857 323.14 344.211C323.197 344.565 323.035 344.921 322.708 345.101L118.105 429.8C117.832 429.921 117.504 429.807 117.338 429.573C117.118 429.339 117.116 428.984 117.224 428.688L156.78 346.33C156.888 346.093 157.16 345.913 157.434 345.91L322.426 343.569ZM119.35 427.603L318.444 345.205L157.825 347.5L119.35 427.603Z" fill="#C4C4C4" fill-opacity="0.2"/>
<path d="M117.916 429.339L117.916 429.338L117.904 429.344C117.893 429.349 117.869 429.354 117.833 429.342C117.795 429.331 117.764 429.307 117.747 429.283L117.727 429.254L117.703 429.229C117.683 429.207 117.662 429.171 117.656 429.105C117.65 429.04 117.659 428.96 117.687 428.877L157.23 346.545L157.23 346.545L157.235 346.536C157.261 346.478 157.356 346.411 157.436 346.41L157.438 346.41L322.428 344.069C322.429 344.069 322.429 344.069 322.429 344.069C322.445 344.069 322.494 344.079 322.55 344.13C322.606 344.18 322.638 344.242 322.646 344.293C322.67 344.438 322.609 344.575 322.487 344.652L117.916 429.339ZM118.9 427.388L118.335 428.563L119.539 428.065L318.633 345.667L318.439 344.705L157.821 347L157.51 347.004L157.375 347.285L118.9 427.388Z" stroke="#DBDBDB" stroke-opacity="0.2"/>
<path d="M203.294 58.8056C203.458 58.8038 203.567 58.8619 203.732 58.9786C203.952 59.154 204.063 59.4491 204.01 59.746L158.024 345.825C157.97 346.063 157.862 346.242 157.644 346.363C157.426 346.484 157.207 346.486 156.987 346.37L-87.5875 225.916C-87.8618 225.801 -87.9728 225.506 -88.0292 225.21C-88.0309 224.914 -87.8685 224.616 -87.6503 224.495L202.857 58.9288C203.02 58.8085 203.184 58.8067 203.294 58.8056ZM156.758 344.476L202.321 60.949L-85.6228 225.066L156.758 344.476Z" fill="#C4C4C4" fill-opacity="0.2"/>
<path d="M203.518 59.6604L203.518 59.6604L203.517 59.669L157.533 345.732C157.504 345.852 157.466 345.891 157.403 345.926C157.333 345.964 157.293 345.965 157.223 345.928L157.216 345.924L157.21 345.921L-87.3648 225.467L-87.3779 225.461L-87.3914 225.455C-87.4017 225.451 -87.4228 225.44 -87.452 225.387C-87.4801 225.336 -87.5056 225.264 -87.5272 225.167C-87.5219 225.118 -87.5062 225.067 -87.4815 225.021C-87.4488 224.959 -87.416 224.935 -87.4097 224.932L-87.4044 224.929L203.103 59.3629L203.128 59.3484L203.152 59.331C203.166 59.3202 203.179 59.3154 203.195 59.312C203.217 59.3075 203.24 59.3062 203.296 59.3056C203.302 59.3055 203.305 59.3057 203.307 59.3059L203.31 59.3062L203.311 59.3065L203.311 59.3066C203.312 59.3068 203.314 59.3074 203.317 59.3086C203.332 59.315 203.361 59.3306 203.428 59.377C203.495 59.4363 203.539 59.5422 203.518 59.6604ZM156.535 344.925L157.143 345.225L157.251 344.553L202.815 61.0259L202.98 59.9993L202.075 60.5149L-85.8687 224.632L-86.6888 225.099L-85.8455 225.515L156.535 344.925Z" stroke="#DBDBDB" stroke-opacity="0.2"/>
<path d="M-87.0805 224.689C-86.9711 224.687 -86.8617 224.686 -86.8067 224.745L157.729 345.146C157.894 345.204 158.059 345.38 158.115 345.616C158.171 345.793 158.172 346.03 158.064 346.209L118.488 428.835C118.38 429.073 118.216 429.193 117.998 429.255C117.779 429.317 117.56 429.2 117.395 429.084L-87.5652 226.056C-87.84 225.822 -87.8973 225.349 -87.6802 225.05C-87.5174 224.812 -87.2993 224.691 -87.0805 224.689ZM156.477 346.226L-83.2317 228.201L117.658 427.245L156.477 346.226Z" fill="#C4C4C4" fill-opacity="0.2"/>
<path d="M-87.0463 225.188C-87.0443 225.188 -87.0424 225.188 -87.0405 225.188L-87.0293 225.194L157.507 345.595L157.534 345.609L157.557 345.617C157.559 345.618 157.569 345.625 157.582 345.64C157.601 345.663 157.619 345.695 157.629 345.734L157.633 345.751L157.638 345.768C157.648 345.801 157.654 345.843 157.652 345.884C157.649 345.925 157.64 345.946 157.636 345.951L157.624 345.972L157.613 345.995L118.037 428.621L118.037 428.621L118.033 428.63C118.006 428.689 117.982 428.714 117.967 428.726C117.951 428.739 117.925 428.756 117.872 428.772C117.867 428.771 117.858 428.769 117.843 428.764C117.81 428.752 117.767 428.73 117.717 428.696L-87.2124 225.7L-87.2257 225.687L-87.24 225.675C-87.2661 225.652 -87.301 225.599 -87.3105 225.517C-87.32 225.436 -87.2988 225.374 -87.2764 225.343L-87.2719 225.337L-87.2676 225.331C-87.1793 225.201 -87.1027 225.189 -87.0777 225.189L-87.0463 225.188ZM156.928 346.44L157.142 345.994L156.7 345.777L-83.009 227.752L-83.5844 228.557L117.306 427.601L117.804 428.095L118.109 427.459L156.928 346.44Z" stroke="#DBDBDB" stroke-opacity="0.2"/>
<path d="M15.47 950.728C15.6887 950.726 15.9082 950.842 16.0736 951.077C16.2943 951.43 16.1876 951.904 15.8608 952.145L-149.121 1073.83C-149.448 1074.07 -149.886 1073.96 -150.107 1073.61C-150.328 1073.25 -150.221 1072.78 -149.894 1072.54L15.0331 950.851C15.1418 950.732 15.3059 950.73 15.47 950.728Z" fill="#C4C4C4" fill-opacity="0.2"/>
<path d="M15.5653 951.743L15.566 951.742C15.6876 951.653 15.7232 951.475 15.6553 951.354C15.5695 951.238 15.497 951.228 15.4728 951.228C15.4296 951.229 15.4003 951.229 15.3736 951.231C15.3676 951.231 15.3623 951.231 15.3576 951.232L15.3286 951.253L-149.599 1072.94L-149.599 1072.94C-149.724 1073.03 -149.759 1073.22 -149.683 1073.34C-149.638 1073.41 -149.58 1073.45 -149.535 1073.46C-149.495 1073.47 -149.456 1073.46 -149.417 1073.43L15.5653 951.743ZM15.5653 951.743L-149.416 1073.43L15.5653 951.743Z" stroke="#DBDBDB" stroke-opacity="0.2"/>
<path d="M-150.719 898.258C-150.665 898.257 -150.61 898.257 -150.5 898.315L15.6882 950.647C15.9621 950.703 16.1278 950.998 16.1842 951.293C16.2406 951.589 16.1329 951.886 15.8603 952.067L-149.183 1073.89C-149.401 1074.07 -149.675 1074.08 -149.894 1073.96C-150.114 1073.84 -150.28 1073.55 -150.281 1073.25L-151.371 899.095C-151.373 898.858 -151.265 898.619 -151.101 898.44C-151.047 898.321 -150.884 898.26 -150.719 898.258ZM13.7786 951.615L-149.998 900.028L-148.922 1071.64L13.7786 951.615Z" fill="#C4C4C4" fill-opacity="0.2"/>
<path d="M-150.732 898.775L-150.722 898.764L-150.696 898.778L-150.653 898.792L15.5358 951.124L15.5601 951.131L15.5783 951.135C15.5833 951.139 15.5937 951.148 15.6083 951.169C15.6418 951.217 15.675 951.294 15.6931 951.389C15.7142 951.5 15.6783 951.589 15.5855 951.651L15.5749 951.658L15.5647 951.665L-149.479 1073.49L-149.49 1073.5L-149.501 1073.51C-149.528 1073.53 -149.551 1073.54 -149.571 1073.54C-149.594 1073.54 -149.625 1073.54 -149.659 1073.52L-149.894 1073.96L-149.659 1073.52C-149.665 1073.51 -149.698 1073.49 -149.731 1073.43C-149.763 1073.37 -149.781 1073.31 -149.781 1073.25L-149.781 1073.25L-150.871 899.089C-150.871 899.089 -150.871 899.089 -150.871 899.089C-150.872 899.001 -150.828 898.88 -150.732 898.775ZM15.5748 951.133C15.5749 951.133 15.5755 951.133 15.5767 951.134C15.5754 951.133 15.5748 951.133 15.5748 951.133ZM14.0741 952.017L14.8662 951.433L13.931 951.138L-149.846 899.551L-150.502 899.344L-150.498 900.034L-149.422 1071.64L-149.416 1072.62L-148.627 1072.04L14.0741 952.017Z" stroke="#DBDBDB" stroke-opacity="0.2"/>
<path d="M551.901 126.288C554.472 126.261 556.539 124.046 556.523 121.261C556.507 118.475 554.47 116.245 551.899 116.272C549.327 116.3 547.261 118.515 547.276 121.3C547.237 124.086 549.329 126.316 551.901 126.288Z" fill="#C4C4C4" fill-opacity="0.2"/>
<path d="M547.776 121.305L547.776 121.305L547.776 121.295C547.762 118.755 549.636 116.797 551.902 116.772C554.153 116.748 556.009 118.711 556.023 121.266C556.037 123.806 554.164 125.764 551.898 125.788C549.638 125.813 547.741 123.844 547.776 121.305Z" stroke="#DBDBDB" stroke-opacity="0.2"/>
<path d="M551.902 126.288C549.331 126.316 547.294 124.085 547.278 121.3C547.262 118.515 549.329 116.3 551.9 116.273C554.472 116.245 556.509 118.476 556.524 121.261C556.485 124.047 554.419 126.261 551.902 126.288ZM551.865 129.37C555.968 129.327 559.34 125.676 559.369 121.231C559.344 116.786 555.986 113.148 551.883 113.132C547.779 113.176 544.408 116.827 544.378 121.272C544.403 125.776 547.761 129.414 551.865 129.37Z" fill="#231F20" fill-opacity="0.2"/>
<path d="M557.024 121.265L557.024 121.265L557.024 121.256C557.007 118.241 554.789 115.742 551.897 115.773C549.021 115.804 546.761 118.275 546.778 121.306C546.795 124.321 549.013 126.819 551.905 126.788C554.732 126.758 556.982 124.284 557.024 121.265ZM558.869 121.233C558.84 125.439 555.655 128.83 551.862 128.87C548.079 128.911 544.904 125.542 544.878 121.27C544.908 117.064 548.09 113.675 551.882 113.632C555.673 113.649 558.844 117.026 558.869 121.233Z" stroke="#DBDBDB" stroke-opacity="0.2"/>
<path d="M465.059 68.9314C468.615 68.8934 471.443 65.7816 471.421 61.9889C471.4 58.137 468.537 55.0858 465.036 55.1232C461.48 55.1611 458.652 58.273 458.674 62.0657C458.64 65.8589 461.503 68.9693 465.059 68.9314Z" fill="#C4C4C4" fill-opacity="0.2"/>
<path d="M459.174 62.0676L459.174 62.0676L459.174 62.0603C459.154 58.5084 461.793 55.6578 465.039 55.6231C468.225 55.5891 470.901 58.3772 470.921 61.9943C470.941 65.5462 468.302 68.3967 465.056 68.4314C461.815 68.466 459.142 65.6191 459.174 62.0676Z" stroke="#DBDBDB" stroke-opacity="0.2"/>
<path d="M465.06 68.9311C461.504 68.9691 458.641 65.8588 458.675 62.0657C458.653 58.2138 461.535 55.1014 465.037 55.1233C468.593 55.0853 471.456 58.1958 471.422 61.9889C471.444 65.7814 468.561 68.8938 465.06 68.9311ZM465.023 72.0724C470.111 72.0181 474.299 67.5288 474.268 62.0177C474.237 56.5067 470.108 51.9876 465.02 52.0419C459.932 52.0962 455.744 56.5856 455.775 62.0966C455.751 67.6082 459.935 72.0675 465.023 72.0724Z" fill="#231F20" fill-opacity="0.2"/>
<path d="M456.275 62.0962L456.275 62.0962L456.275 62.0913C456.245 56.826 460.24 52.593 465.022 52.5419C469.79 52.491 473.738 56.7419 473.768 62.0231C473.797 67.2873 469.804 71.5197 465.023 71.5724C460.242 71.5661 456.252 67.3627 456.275 62.0962ZM458.175 62.0673C458.141 66.1006 461.193 69.4725 465.063 69.4311C468.871 69.3905 471.943 66.0217 471.922 61.9872C471.956 57.9554 468.906 54.5844 465.038 54.6233C461.221 54.602 458.153 57.9804 458.175 62.0673Z" stroke="#DBDBDB" stroke-opacity="0.2"/>
<path d="M650.041 189.731C652.339 189.706 654.242 187.671 654.228 185.183C654.214 182.694 652.343 180.64 650.045 180.665C647.748 180.689 645.844 182.724 645.858 185.213C645.872 187.701 647.744 189.696 650.041 189.731Z" fill="#C4C4C4" fill-opacity="0.2"/>
<path d="M653.728 185.188C653.741 187.428 652.035 189.206 650.045 189.231C648.05 189.197 646.371 187.452 646.358 185.207C646.346 182.965 648.055 181.186 650.048 181.165C652.024 181.144 653.715 182.928 653.728 185.188Z" stroke="#DBDBDB" stroke-opacity="0.2"/>
<path d="M650.041 189.731C647.743 189.755 645.816 187.702 645.857 185.212C645.898 182.723 647.746 180.629 650.044 180.663C652.342 180.639 654.269 182.693 654.228 185.182C654.242 187.671 652.393 189.706 650.041 189.731ZM650.058 192.812C653.942 192.771 657.151 189.358 657.127 185.092C657.104 180.884 653.966 177.421 650.026 177.463C646.142 177.505 642.933 180.917 642.957 185.184C642.981 189.451 646.174 192.854 650.058 192.812Z" fill="#231F20" fill-opacity="0.2"/>
<path d="M645.357 185.206C645.312 187.944 647.434 190.259 650.044 190.231C652.703 190.202 654.741 187.911 654.728 185.182C654.77 182.449 652.653 180.139 650.048 180.163C647.418 180.128 645.401 182.504 645.357 185.206ZM656.627 185.097C656.65 189.118 653.634 192.274 650.055 192.312C646.486 192.35 643.48 189.21 643.457 185.178C643.434 181.157 646.45 178.002 650.029 177.963C653.648 177.925 656.605 181.12 656.627 185.097Z" stroke="#DBDBDB" stroke-opacity="0.2"/>
<path d="M447.656 323.594C451.431 323.554 454.421 320.263 454.453 316.173C454.43 312.084 451.403 308.857 447.627 308.838C443.852 308.879 440.862 312.17 440.83 316.259C440.853 320.289 443.88 323.575 447.656 323.594Z" fill="#C4C4C4" fill-opacity="0.2"/>
<path d="M447.626 309.338C451.094 309.358 453.93 312.329 453.953 316.175C453.922 320.03 451.115 323.055 447.657 323.094C444.192 323.075 441.353 320.047 441.33 316.257C441.361 312.403 444.168 309.377 447.626 309.338Z" stroke="#DBDBDB" stroke-opacity="0.2"/>
<path d="M447.655 323.595C443.88 323.635 440.852 320.348 440.829 316.26C440.806 312.171 443.852 308.879 447.627 308.838C451.402 308.798 454.43 312.084 454.453 316.173C454.421 320.263 451.376 323.555 447.655 323.595ZM447.673 326.676C452.979 326.619 457.33 321.95 457.352 316.142C457.374 310.334 453.026 305.699 447.664 305.697C442.302 305.695 438.006 310.423 437.984 316.231C437.962 322.039 442.311 326.733 447.673 326.676Z" fill="#231F20" fill-opacity="0.2"/>
<path d="M454.953 316.175L454.953 316.175L454.953 316.168C454.928 311.847 451.717 308.295 447.624 308.338C443.541 308.382 440.305 311.933 440.329 316.265C440.354 320.586 443.565 324.138 447.658 324.095C451.689 324.052 454.919 320.499 454.953 316.175ZM456.852 316.143C456.831 321.712 452.668 326.123 447.67 326.176C442.624 326.23 438.463 321.8 438.484 316.23C438.505 310.654 442.618 306.195 447.661 306.197C452.716 306.199 456.873 310.579 456.852 316.143Z" stroke="#DBDBDB" stroke-opacity="0.2"/>
<path d="M53.6423 790.529C55.885 790.505 57.7339 788.53 57.7199 786.042C57.7062 783.612 55.8897 781.617 53.5922 781.642C51.3495 781.665 49.5006 783.641 49.5146 786.129C49.5283 788.558 51.3448 790.554 53.6423 790.529Z" fill="#C4C4C4" fill-opacity="0.2"/>
<path d="M57.2199 786.047C57.2325 788.293 55.5734 790.009 53.6394 790.029C51.6591 790.05 50.027 788.32 50.0146 786.124C50.0019 783.878 51.6611 782.162 53.595 782.142C55.5754 782.12 57.2075 783.851 57.2199 786.047Z" stroke="#DBDBDB" stroke-opacity="0.2"/>
<path d="M53.6412 790.529C51.3981 790.553 49.5266 788.558 49.5129 786.128C49.4992 783.699 51.348 781.664 53.5911 781.64C55.8342 781.616 57.7057 783.611 57.7194 786.041C57.7334 788.529 55.8843 790.505 53.6412 790.529ZM53.6038 793.611C57.4335 793.57 60.5877 790.158 60.5643 786.01C60.541 781.862 57.4031 778.458 53.5734 778.499C49.7437 778.54 46.5896 781.952 46.6129 786.1C46.6366 790.307 49.7741 793.652 53.6038 793.611Z" fill="#231F20" fill-opacity="0.2"/>
<path d="M49.0129 786.134C49.0279 788.801 51.0879 791.056 53.644 791.029C56.1959 791.002 58.2348 788.766 58.2194 786.035C58.2044 783.368 56.1444 781.113 53.5883 781.14C51.0322 781.167 48.9979 783.466 49.0129 786.134ZM60.0643 786.016C60.0863 789.921 57.1226 793.073 53.601 793.111C50.0867 793.148 47.1353 790.067 47.1129 786.095C47.0909 782.19 50.0546 779.037 53.5762 778.999C57.0881 778.962 60.0423 782.1 60.0643 786.016Z" stroke="#DBDBDB" stroke-opacity="0.2"/>
<path d="M-6.18977 581.931C-8.76115 581.958 -10.8532 579.669 -10.8688 576.884C-10.8845 574.099 -8.76349 571.824 -6.1921 571.797C-3.62072 571.769 -1.52872 574.058 -1.51304 576.843C-1.55207 579.629 -3.61838 581.903 -6.18977 581.931ZM-6.22677 585.072C-2.06878 585.028 1.30289 581.377 1.27753 576.873C1.25217 572.369 -2.10586 568.731 -6.26384 568.775C-10.4218 568.82 -13.7935 572.471 -13.7681 576.974C-13.7431 581.419 -10.3304 585.057 -6.22677 585.072Z" fill="#231F20" fill-opacity="0.2"/>
<path d="M-1.01311 576.848L-1.01301 576.848L-1.01307 576.838C-1.03004 573.823 -3.30334 571.266 -6.19492 571.297C-9.07196 571.327 -11.3859 573.859 -11.3688 576.889C-11.3518 579.905 -9.07854 582.462 -6.18695 582.431C-3.30164 582.4 -1.05534 579.862 -1.01311 576.848ZM0.777557 576.878C0.80154 581.138 -2.37802 584.529 -6.22597 584.572C-10.0224 584.556 -13.2445 581.172 -13.2682 576.969C-13.2922 572.708 -10.1106 569.316 -6.26103 569.275C-2.42052 569.234 0.75351 572.607 0.777557 576.878Z" stroke="#DBDBDB" stroke-opacity="0.2"/>
<path d="M405.042 244.91C409.966 244.857 413.991 240.547 413.96 235.155C413.93 229.821 409.966 225.478 404.988 225.531C400.064 225.584 396.039 229.894 396.07 235.286C396.1 240.679 400.118 244.903 405.042 244.91Z" fill="#C4C4C4" fill-opacity="0.2"/>
<path d="M413.46 235.16C413.489 240.307 409.658 244.359 405.042 244.41C400.424 244.402 396.598 240.431 396.569 235.281C396.541 230.132 400.374 226.081 404.99 226.031C409.65 225.982 413.431 230.058 413.46 235.16Z" stroke="#DBDBDB" stroke-opacity="0.2"/>
<path d="M405.042 244.91C400.118 244.962 396.099 240.62 396.069 235.286C396.039 229.953 400.063 225.584 404.987 225.531C409.911 225.479 413.93 229.821 413.96 235.155C413.99 240.488 410.02 244.857 405.042 244.91ZM405.059 247.991C411.57 247.981 416.844 242.176 416.859 235.124C416.874 228.071 411.535 222.38 405.024 222.39C398.513 222.4 393.239 228.205 393.224 235.257C393.264 242.309 398.548 248.061 405.059 247.991Z" fill="#231F20" fill-opacity="0.2"/>
<path d="M405.061 247.491L405.061 247.491L405.056 247.491C398.865 247.557 393.763 242.074 393.724 235.254C393.739 228.435 398.83 222.9 405.023 222.89C411.225 222.88 416.374 228.315 416.359 235.125C416.345 241.945 411.254 247.482 405.061 247.491ZM395.569 235.292C395.6 240.859 399.804 245.466 405.044 245.41C410.334 245.353 414.491 240.723 414.46 235.149C414.428 229.582 410.225 224.975 404.984 225.031C399.751 225.087 395.538 229.716 395.569 235.292Z" stroke="#DBDBDB" stroke-opacity="0.2"/>
<path d="M317.19 344.335C317.207 347.417 319.519 349.881 322.365 349.91C325.21 349.88 327.494 347.366 327.531 344.284C327.514 341.202 325.202 338.738 322.356 338.709C319.457 338.74 317.173 341.253 317.19 344.335Z" fill="#C4C4C4" fill-opacity="0.2"/>
<path d="M327.031 344.285C326.994 347.133 324.895 349.38 322.367 349.41C319.826 349.381 317.706 347.169 317.69 344.33C317.674 341.491 319.766 339.239 322.354 339.209C324.893 339.238 327.013 341.448 327.031 344.285Z" stroke="#DBDBDB" stroke-opacity="0.2"/>
<path d="M322.31 349.911C319.465 349.941 317.153 347.417 317.136 344.336C317.118 341.254 319.457 338.74 322.302 338.71C325.147 338.68 327.459 341.203 327.476 344.285C327.494 347.366 325.155 349.88 322.31 349.911ZM322.328 352.992C326.759 352.945 330.348 349.054 330.321 344.254C330.294 339.454 326.716 335.581 322.285 335.628C317.853 335.676 314.264 339.566 314.291 344.366C314.318 349.166 317.896 353.039 322.328 352.992Z" fill="#231F20" fill-opacity="0.2"/>
<path d="M316.636 344.341C316.655 347.653 319.149 350.444 322.313 350.411C325.464 350.377 327.995 347.606 327.976 344.279C327.958 340.967 325.464 338.176 322.299 338.21C319.148 338.244 316.617 341.015 316.636 344.341ZM329.821 344.26C329.847 348.817 326.448 352.448 322.325 352.492C318.211 352.536 314.817 348.928 314.791 344.361C314.765 339.803 318.165 336.172 322.287 336.128C326.402 336.084 329.796 339.693 329.821 344.26Z" stroke="#DBDBDB" stroke-opacity="0.2"/>
<path d="M202.963 68.3473C207.449 68.2994 211.038 64.4089 211.065 59.5491C211.038 54.6897 207.46 50.8166 202.973 50.8052C198.487 50.8531 194.898 54.7435 194.871 59.6034C194.843 64.4633 198.476 68.3359 202.963 68.3473Z" fill="#C4C4C4" fill-opacity="0.2"/>
<path d="M202.973 51.3053C207.147 51.3178 210.538 54.9299 210.565 59.5516C210.538 64.1717 207.138 67.8008 202.963 67.8472C198.784 67.8348 195.345 64.2175 195.371 59.6037C195.397 54.9822 198.797 51.3517 202.973 51.3053Z" stroke="#DBDBDB" stroke-opacity="0.2"/>
<path d="M202.963 68.3474C198.477 68.3953 194.844 64.4634 194.871 59.6035C194.844 54.7442 198.487 50.794 202.974 50.8054C207.46 50.7575 211.094 54.6893 211.066 59.5492C211.039 64.3498 207.45 68.2995 202.963 68.3474ZM202.981 71.4289C209.054 71.4234 213.948 66.0374 213.911 59.5188C213.929 52.9404 208.975 47.6596 202.957 47.7238C196.939 47.7881 191.99 53.1153 192.026 59.6339C192.008 66.153 196.908 71.4937 202.981 71.4289Z" fill="#231F20" fill-opacity="0.2"/>
<path d="M211.566 59.5495L211.566 59.5495C211.595 54.4522 207.776 50.256 202.975 50.3053C198.175 50.2951 194.344 54.5087 194.371 59.6061C194.344 64.7032 198.164 68.8986 202.966 68.8474C207.764 68.7962 211.537 64.5849 211.566 59.5495ZM202.983 70.9289L202.983 70.9289L202.978 70.9289C197.222 70.9904 192.509 65.9152 192.526 59.6327L192.526 59.6327L192.526 59.6285C192.491 53.3545 197.248 48.2848 202.96 48.2238C208.664 48.1629 213.428 53.1815 213.411 59.52L213.411 59.52L213.411 59.5241C213.447 65.8046 208.74 70.9236 202.983 70.9289Z" stroke="#DBDBDB" stroke-opacity="0.2"/>
<path d="M157.363 355.438C162.013 355.389 165.82 351.318 165.792 346.222C165.763 341.185 162.019 337.076 157.314 337.126C152.664 337.176 148.857 341.247 148.886 346.343C148.914 351.38 152.658 355.488 157.363 355.438Z" fill="#C4C4C4" fill-opacity="0.2"/>
<path d="M165.292 346.227C165.319 351.079 161.703 354.892 157.36 354.938C152.974 354.985 149.413 351.143 149.386 346.338C149.358 341.486 152.974 337.673 157.317 337.626C161.703 337.579 165.264 341.421 165.292 346.227Z" stroke="#DBDBDB" stroke-opacity="0.2"/>
<path d="M157.363 355.438C152.713 355.488 148.914 351.38 148.886 346.343C148.858 341.306 152.664 337.176 157.315 337.126C161.965 337.077 165.763 341.185 165.792 346.222C165.82 351.318 162.013 355.389 157.363 355.438ZM157.381 358.579C163.618 358.572 168.73 353.006 168.692 346.25C168.708 339.494 163.589 333.978 157.352 334.044C151.115 334.052 146.003 339.618 146.041 346.373C146.024 353.13 151.089 358.587 157.381 358.579Z" fill="#231F20" fill-opacity="0.2"/>
<path d="M157.383 358.079L157.383 358.079C151.4 358.087 146.525 352.887 146.541 346.372L146.541 346.372L146.541 346.368C146.504 339.852 151.428 334.551 157.35 334.545L157.35 334.545L157.355 334.544C163.276 334.481 168.208 339.734 168.192 346.251L168.192 346.251L168.192 346.255C168.228 352.771 163.305 358.072 157.383 358.079ZM148.386 346.348C148.416 351.619 152.398 355.991 157.366 355.938C162.323 355.885 166.322 351.557 166.292 346.216C166.262 340.946 162.279 336.573 157.312 336.626C152.353 336.679 148.356 341.069 148.386 346.348Z" stroke="#DBDBDB" stroke-opacity="0.2"/>
<path d="M117.957 434.9C120.966 434.868 123.359 432.234 123.395 428.974C123.377 425.715 120.955 423.133 117.945 423.106C114.936 423.138 112.543 425.771 112.507 429.031C112.525 432.291 114.947 434.932 117.957 434.9Z" fill="#C4C4C4" fill-opacity="0.2"/>
<path d="M117.943 423.606C120.646 423.633 122.876 425.96 122.895 428.975C122.859 432.003 120.648 434.371 117.954 434.4C115.265 434.428 113.026 432.057 113.007 429.03C113.043 426.004 115.251 423.637 117.943 423.606Z" stroke="#DBDBDB" stroke-opacity="0.2"/>
<path d="M117.957 434.899C114.948 434.932 112.526 432.291 112.507 429.031C112.489 425.772 114.936 423.138 117.945 423.106C120.954 423.074 123.377 425.715 123.395 428.974C123.358 432.234 120.911 434.868 117.957 434.899ZM117.919 437.982C122.515 437.933 126.213 433.922 126.185 428.945C126.157 423.967 122.469 419.976 117.873 420.025C113.277 420.074 109.58 424.085 109.608 429.062C109.636 434.04 113.379 438.03 117.919 437.982Z" fill="#231F20" fill-opacity="0.2"/>
<path d="M123.895 428.977L123.895 428.977L123.895 428.969C123.875 425.479 121.271 422.571 117.942 422.606C114.627 422.642 111.987 425.533 112.007 429.037C112.027 432.527 114.631 435.435 117.96 435.399C121.225 435.365 123.856 432.471 123.895 428.977ZM125.685 428.95C125.712 433.685 122.204 437.436 117.917 437.482C113.691 437.527 110.134 433.799 110.108 429.057C110.081 424.321 113.589 420.571 117.876 420.525C122.155 420.48 125.658 424.205 125.685 428.95Z" stroke="#DBDBDB" stroke-opacity="0.2"/>
<path d="M15.32 958.492C18.8762 958.454 21.8132 955.341 21.7912 951.43C21.7695 947.578 18.9066 944.409 15.2957 944.447C11.7395 944.485 8.80249 947.598 8.82451 951.509C8.84653 955.42 11.7091 958.531 15.32 958.492Z" fill="#C4C4C4" fill-opacity="0.2"/>
<path d="M21.2912 951.435C21.3119 955.1 18.5683 957.957 15.3172 957.992C12.0245 958.027 9.3452 955.183 9.32448 951.504C9.30385 947.839 12.0474 944.982 15.2985 944.947C18.5886 944.912 21.2708 947.813 21.2912 951.435Z" stroke="#DBDBDB" stroke-opacity="0.2"/>
<path d="M15.3207 958.492C11.7645 958.53 8.84681 955.361 8.82513 951.509C8.80344 947.658 11.7401 944.485 15.2963 944.447C18.8525 944.409 21.7701 947.578 21.7918 951.43C21.8139 955.341 18.8772 958.514 15.3207 958.492ZM15.3383 961.633C20.4811 961.578 24.6685 957.03 24.6918 951.459C24.6605 945.888 20.4768 941.37 15.3337 941.365C10.1909 941.42 6.00355 945.969 5.9802 951.54C5.95686 957.111 10.1405 961.629 15.3383 961.633Z" fill="#231F20" fill-opacity="0.2"/>
<path d="M8.32515 951.515C8.34814 955.597 11.4469 959.031 15.3193 958.992C19.1927 959.013 22.3152 955.573 22.2918 951.425C22.2688 947.341 19.1678 943.906 15.2935 943.947C11.4296 943.989 8.30209 947.419 8.32515 951.515ZM24.1918 951.461C24.1683 956.793 20.1693 961.08 15.3384 961.133C10.4503 961.128 6.45785 956.867 6.48018 951.539C6.50253 946.207 10.5019 941.919 15.3335 941.865C20.1639 941.871 24.1606 946.129 24.1918 951.461Z" stroke="#DBDBDB" stroke-opacity="0.2"/>
</svg>
